<svg width="12" height="20" viewBox="0 0 12 20" fill="none" xmlns="http://www.w3.org/2000/svg">
<path d="M9.91779 0.149716C9.7353 0.147183 9.55424 0.184521 9.38556 0.259471C9.21688 0.334421 9.06409 0.445422 8.93646 0.585752L1.1818 8.75732C0.83894 9.12943 0.677416 9.51137 0.66675 9.98019C0.66675 10.449 0.828274 10.8408 1.1818 11.2014L8.93799 19.3845C9.13555 19.5946 9.38656 19.7371 9.65935 19.794C9.93213 19.8509 10.2145 19.8196 10.4707 19.704C10.727 19.5884 10.9456 19.3938 11.0992 19.1447C11.2527 18.8956 11.3342 18.6031 11.3334 18.3042C11.331 18.0961 11.2903 17.8907 11.2137 17.6996C11.1371 17.5086 11.026 17.3358 10.8869 17.1912L4.01151 9.97855L10.8869 2.77904C11.026 2.63443 11.1371 2.46161 11.2137 2.27057C11.2903 2.07953 11.331 1.87406 11.3334 1.666C11.3338 1.46621 11.2974 1.2683 11.2264 1.08371C11.1553 0.899122 11.0509 0.731502 10.9193 0.590529C10.7877 0.449556 10.6314 0.338021 10.4595 0.262361C10.2876 0.186702 10.1035 0.148417 9.91779 0.149716Z" fill="#575757"/>
</svg>
