<svg width="12" height="20" viewBox="0 0 12 20" fill="none" xmlns="http://www.w3.org/2000/svg">
<path d="M2.08221 19.8216C2.2647 19.8241 2.44576 19.7868 2.61444 19.7118C2.78312 19.6369 2.93591 19.5259 3.06354 19.3856L10.8182 11.214C11.1611 10.8419 11.3226 10.4599 11.3333 9.99113C11.3333 9.52231 11.1717 9.13053 10.8182 8.7699L3.06202 0.586858C2.86445 0.376685 2.61344 0.234174 2.34066 0.177304C2.06788 0.120435 1.78555 0.151757 1.5293 0.267316C1.27305 0.382876 1.05436 0.577498 0.900818 0.826623C0.747281 1.07575 0.665777 1.36821 0.666591 1.66711C0.668994 1.87516 0.709687 2.08064 0.786319 2.27168C0.862952 2.46272 0.974005 2.63554 1.11307 2.78015L7.98849 9.99277L1.11307 17.1923C0.974004 17.3369 0.862951 17.5097 0.786318 17.7007C0.709685 17.8918 0.668993 18.0973 0.66659 18.3053C0.666184 18.5051 0.702567 18.703 0.77364 18.8876C0.844713 19.0722 0.949068 19.2398 1.08068 19.3808C1.2123 19.5218 1.36856 19.6333 1.54046 19.7089C1.71236 19.7846 1.89648 19.8229 2.08221 19.8216Z" fill="#575757"/>
</svg>
