<svg width="44" height="31" viewBox="0 0 44 31" fill="none" xmlns="http://www.w3.org/2000/svg">
<path d="M22.796 1.3103C22.6553 0.992983 22.3436 0.788818 22 0.788818C21.6564 0.788818 21.3447 0.992983 21.204 1.3103L18.7463 6.85285L12.7787 7.50596C12.4371 7.54335 12.1489 7.78024 12.0427 8.11103C11.9365 8.44181 12.0321 8.80485 12.2868 9.03842L16.7353 13.117L15.505 19.0632C15.4345 19.4036 15.5681 19.7542 15.8461 19.9586C16.1241 20.163 16.4948 20.1832 16.7929 20.0103L22 16.9884L27.2072 20.0103C27.5053 20.1832 27.8759 20.163 28.154 19.9586C28.4319 19.7542 28.5655 19.4036 28.495 19.0632L27.2647 13.117L31.7132 9.03842C31.9679 8.80485 32.0635 8.44181 31.9573 8.11103C31.8511 7.78024 31.563 7.54335 31.2213 7.50596L25.2538 6.85285L22.796 1.3103Z" fill="#FFC738"/>
<path d="M6.36339 15.0562C6.15953 14.9373 5.9022 14.952 5.7061 15.0938C5.51005 15.2356 5.41172 15.4781 5.45497 15.7132L6.21073 19.8188L3.05989 22.6458C2.8795 22.8076 2.80733 23.0586 2.87554 23.287C2.94375 23.5153 3.13963 23.6783 3.3759 23.7035L7.50242 24.1424L9.11572 27.9666C9.20808 28.1855 9.42079 28.3259 9.65903 28.3252C9.89727 28.3245 10.1167 28.1828 10.2194 27.9633L12.014 24.129L16.1619 23.6655C16.3994 23.6389 16.603 23.4747 16.6821 23.2459C16.7611 23.0172 16.7008 22.7665 16.528 22.6057L13.5106 19.7971L14.4609 15.6864C14.5152 15.451 14.4284 15.2091 14.239 15.0685C14.0496 14.9278 13.793 14.9146 13.5835 15.0347L9.924 17.1332L6.36339 15.0562Z" fill="#FFD978"/>
<path d="M38.5429 15.7703C38.5883 15.5357 38.4923 15.2923 38.2975 15.1486C38.1028 15.0049 37.8456 14.9877 37.6406 15.1046L34.0609 17.1472L30.4211 15.0136C30.2127 14.8915 29.9559 14.9022 29.7652 15.041C29.5745 15.1799 29.4854 15.4209 29.5376 15.6568L30.4496 19.7764L27.4062 22.5559C27.232 22.715 27.1694 22.9651 27.2463 23.1946C27.3232 23.4241 27.5253 23.5903 27.7625 23.6191L31.9059 24.1226L33.6648 27.974C33.7655 28.1945 33.9835 28.3383 34.2218 28.3413C34.46 28.3443 34.674 28.206 34.7683 27.9879L36.4171 24.1794L40.5476 23.7803C40.784 23.7574 40.9814 23.5963 41.0518 23.3686C41.1221 23.141 41.0523 22.8893 40.8734 22.7257L37.749 19.8685L38.5429 15.7703Z" fill="#FFD978"/>
</svg>
