<svg width="12" height="16" viewBox="0 0 12 16" fill="none" xmlns="http://www.w3.org/2000/svg">
<path d="M10.2105 1.74122C9.04906 0.580563 7.52729 0 6.00502 0C4.48321 0 2.96094 0.580563 1.79958 1.74122C-0.0513845 3.59181 -0.533419 6.41506 0.671417 8.58106C1.67077 10.3771 4.012 13.4528 5.23315 15.0199C5.6268 15.5251 6.38326 15.5251 6.77694 15.02C7.99821 13.4529 10.3397 10.3772 11.3391 8.58106C12.5439 6.41503 12.0619 3.59181 10.2105 1.74122ZM6.00502 9.55762C4.01046 9.55762 2.39295 7.94044 2.39295 5.94678C2.39295 3.95119 4.01046 2.334 6.00502 2.334C8.00004 2.334 9.61755 3.95119 9.61755 5.94678C9.61755 7.94044 8.00004 9.55762 6.00502 9.55762Z" fill="#6AA5FF"/>
</svg>
