<svg width="61" height="51" viewBox="0 0 61 51" fill="none" xmlns="http://www.w3.org/2000/svg">
<path d="M38.8353 38.8027C38.8353 44.5554 43.5613 49.2402 49.4176 49.2402C55.2739 49.2402 59.9999 44.5554 59.9999 38.8027C59.9999 33.0501 55.2739 28.3652 49.4176 28.3652C43.5613 28.3652 38.8353 33.0501 38.8353 38.8027Z" stroke="#C5D3E4" stroke-width="2"/>
<path d="M44.0126 15.9277L49.4176 38.8027" stroke="#C5D3E4" stroke-width="2" stroke-linecap="round"/>
<path d="M45.9999 24.3906L30.9999 24.3906" stroke="#C5D3E4" stroke-width="2" stroke-linecap="round"/>
<path d="M45.7279 24.3047L37 30" stroke="#C5D3E4" stroke-width="2" stroke-linecap="round"/>
<path d="M31.7901 8.41811C29.4488 8.41811 27.5508 6.53365 27.5508 4.20906C27.5508 1.88446 29.4488 0 31.7901 0C34.1314 0 35.7549 1.88446 35.7549 4.20906C35.7549 6.53365 34.1314 8.41811 31.7901 8.41811Z" fill="#9EA9B7"/>
<path d="M46.4612 17.5951C46.4612 18.114 46.0583 18.5487 45.5413 18.5934C36.1383 19.4057 44.9002 18.6488 36.7357 19.3541C35.5653 19.4552 34.4096 19.0152 33.3895 18.4326C33.0041 18.2125 32.6044 18.0071 32.2119 17.7985C31.2912 17.3093 30.1433 17.4699 29.6523 18.3897C28.564 20.4289 27.3107 23.6699 28.3232 24.4882C29.3275 25.2999 31.8279 27.6477 33.7939 29.3654C34.7137 30.1689 35.2727 31.3225 35.2727 32.5438V42.7857C35.2727 43.4918 34.5518 43.9835 33.8535 43.8786C32.7355 43.7105 31.6505 43.8126 30.3425 43.714C29.8469 43.6767 29.4817 43.2515 29.4817 42.7545V34.0715C29.4817 33.3019 29.3242 32.5328 28.7864 31.9824C27.1565 30.3139 23.2112 27.6763 20.4661 25.8493C19.0531 24.9089 18.6939 22.946 19.4748 21.4389C20.8299 18.8236 22.569 14.9989 24.0594 11.8965C25.4443 9.01361 28.68 8.52824 31.0137 10.7153C32.1062 11.7391 33.2302 12.7958 34.2175 13.6966C35.3709 14.749 36.9153 15.2345 38.4716 15.1087L45.3807 14.5502C45.9628 14.5032 46.4612 14.9673 46.4612 15.5513C46.4612 17.4789 46.4612 15.4414 46.4612 17.5951Z" fill="#9EA9B7"/>
<path d="M4.99989 38.8027C4.99989 44.5554 9.72584 49.2402 15.5822 49.2402C21.4385 49.2402 26.1644 44.5554 26.1644 38.8027C26.1644 33.0501 21.4385 28.3652 15.5822 28.3652C9.72584 28.3652 4.99989 33.0501 4.99989 38.8027Z" stroke="#C5D3E4" stroke-width="2"/>
<path d="M14.8099 38.8027L21.7593 31.1777" stroke="#C5D3E4" stroke-width="2" stroke-linecap="square"/>
<path d="M14.3693 39.2907L25.9999 39.3906" stroke="#C5D3E4" stroke-width="2" stroke-linecap="round"/>
</svg>
