<svg width="32" height="32" viewBox="0 0 32 32" fill="none" xmlns="http://www.w3.org/2000/svg">
<rect width="32" height="32" rx="16" fill="#EFF1F4" fill-opacity="0.7"/>
<path fill-rule="evenodd" clip-rule="evenodd" d="M11.7812 8C8.53699 8 6 10.8198 6 14.1559C6 15.8911 6.27768 17.32 7.31283 18.8234C8.3005 20.258 9.9429 21.7056 12.4913 23.6155L14.3138 24.854C15.3315 25.5457 16.6685 25.5457 17.6862 24.8541L19.5084 23.6158C22.057 21.7058 23.6995 20.258 24.6872 18.8234C25.7223 17.32 26 15.8911 26 14.1559C26 10.8198 23.463 8 20.2188 8C18.9265 8 17.7721 8.41796 16.7598 9.19064C16.316 9.52937 15.684 9.52937 15.2402 9.19064C14.2279 8.41796 13.0735 8 11.7812 8ZM11.7812 10C9.77551 10 8 11.7855 8 14.1559C8 14.7049 8.03107 15.1875 8.10853 15.6325C8.23826 16.378 8.49814 17.0182 8.96014 17.6893C9.74532 18.8297 11.1486 20.11 13.6916 22.0157L14.1984 22.3964C15.2657 23.1979 16.7343 23.1979 17.8016 22.3963L18.3084 22.0157C20.8514 20.11 22.2547 18.8297 23.0399 17.6893C23.7777 16.6176 24 15.6245 24 14.1559C24 11.7855 22.2245 10 20.2188 10C18.9831 10 17.8501 10.5863 16.8033 11.9983C16.6147 12.2527 16.3167 12.4028 16 12.4028C15.6833 12.4028 15.3853 12.2527 15.1967 11.9983C14.1499 10.5863 13.0169 10 11.7812 10Z" fill="#FF6F32"/>
</svg>
