<svg width="32" height="32" viewBox="0 0 32 32" fill="none" xmlns="http://www.w3.org/2000/svg">
<g clip-path="url(#clip0_2273_7543)">
<path d="M16 9.25195C13.24 9.25195 11 11.492 11 14.2519C11 16.9586 13.12 19.1586 15.9333 19.2386C15.9733 19.2386 16.0267 19.2386 16.0533 19.2386C16.08 19.2386 16.12 19.2386 16.1467 19.2386C16.16 19.2386 16.1733 19.2386 16.1733 19.2386C18.8667 19.1452 20.9867 16.9586 21 14.2519C21 11.492 18.76 9.25195 16 9.25195Z" fill="#9E9E9E"/>
<path d="M24.583 24.7032C24.9502 25.3469 24.7074 26.1378 24.1197 26.5892C21.8738 28.3143 19.06 29.347 16.0009 29.347C12.9418 29.347 10.1281 28.3143 7.88213 26.5892C7.29446 26.1378 7.05211 25.3469 7.42102 24.7042C7.86616 23.9287 8.5463 23.225 9.41427 22.6403C13.0543 20.2136 18.9743 20.2136 22.5876 22.6403C23.4643 23.2248 24.1409 23.9282 24.583 24.7032Z" fill="#9E9E9E"/>
</g>
<defs>
<clipPath id="clip0_2273_7543">
<rect width="32" height="32" fill="white"/>
</clipPath>
</defs>
</svg>
