<svg width="26" height="37" viewBox="0 0 26 37" fill="none" xmlns="http://www.w3.org/2000/svg">
<g clip-path="url(#clip0_3369_362)">
<path d="M8.52051 27.5093C9.58316 28.8734 10.6654 30.5886 11.2318 31.6247C11.9216 32.9715 12.2075 33.8809 12.7206 35.5098C13.0207 36.4019 13.3067 36.6724 13.9067 36.6724C14.5628 36.6724 14.8628 36.2177 15.0927 35.5098C15.5721 33.9816 15.9423 32.819 16.5283 31.711C18.7881 27.3367 22.4724 24.2286 24.5472 19.9694C24.5472 19.9694 25.9127 17.3678 25.9127 13.7244C25.9127 10.3286 24.5668 7.96875 24.5668 7.96875L8.52892 27.5381L8.52051 27.5093Z" fill="#34A853"/>
<path d="M3.08091 19.5096C4.37347 22.5314 6.83804 25.179 8.52034 27.5101L17.4365 16.6606C17.4365 16.6606 16.1776 18.3527 13.9037 18.3527C11.369 18.3527 9.30542 16.2807 9.30542 13.6618C9.30542 11.8603 10.3512 10.6113 10.3512 10.6113C3.79028 11.6128 4.15477 13.2446 3.06128 19.5039L3.08091 19.5096Z" fill="#FBBC04"/>
<path d="M17.5486 1.88867C20.5206 2.87002 23.0441 4.93919 24.5581 7.96093L17.4364 16.6808C17.4364 16.6808 18.4822 15.4261 18.4822 13.6303C18.4822 10.9568 16.284 8.9394 13.912 8.9394C11.6605 8.9394 10.3792 10.6114 10.3792 10.6114C10.9259 9.33367 16.5756 2.32323 17.557 1.89155L17.5486 1.88867Z" fill="#4285F4"/>
<path d="M4.70728 5.72537C6.4793 3.56123 9.58595 1.32227 13.8758 1.32227C15.9478 1.32227 17.5208 1.88632 17.5208 1.88632L10.371 10.6062C9.88876 10.3377 5.18393 6.57722 4.70728 5.71386V5.72537Z" fill="#1A73E8"/>
<path d="M3.08082 19.51C3.08082 19.51 1.91162 17.1272 1.91162 13.6968C1.91162 10.4448 3.15092 7.59573 4.71545 5.75391L10.3792 10.6463L3.08923 19.51H3.08082Z" fill="#EA4335"/>
</g>
<defs>
<clipPath id="clip0_3369_362">
<rect width="25" height="37" fill="white" transform="translate(0.883789)"/>
</clipPath>
</defs>
</svg>
