<svg width="84" height="69" viewBox="0 0 84 69" fill="none" xmlns="http://www.w3.org/2000/svg">
<rect width="84" height="69" rx="13" fill="white"/>
<path d="M33.1813 48.224C32.2387 48.224 31.3707 47.9953 30.5773 47.538C29.784 47.0807 29.154 46.4507 28.6873 45.648C28.2207 44.8453 27.9873 43.9587 27.9873 42.988C27.9873 42.0173 28.2207 41.1307 28.6873 40.328C29.154 39.5253 29.784 38.8953 30.5773 38.438C31.3707 37.9807 32.2387 37.752 33.1813 37.752C33.9187 37.752 34.6093 37.8827 35.2533 38.144C35.9067 38.4053 36.4433 38.774 36.8633 39.25L36.0093 40.104C35.692 39.712 35.286 39.4133 34.7913 39.208C34.2967 38.9933 33.7647 38.886 33.1953 38.886C32.486 38.886 31.8233 39.0587 31.2073 39.404C30.6007 39.74 30.1107 40.2207 29.7373 40.846C29.3733 41.462 29.1913 42.176 29.1913 42.988C29.1913 43.8 29.3733 44.5187 29.7373 45.144C30.1107 45.76 30.6053 46.2407 31.2213 46.586C31.8373 46.922 32.4953 47.09 33.1953 47.09C33.8673 47.09 34.4273 46.9873 34.8753 46.782C35.3327 46.5673 35.7247 46.2873 36.0513 45.942C36.294 45.6807 36.49 45.368 36.6393 45.004C36.7887 44.6307 36.882 44.22 36.9193 43.772H33.2093V42.666H38.0253C38.072 42.9273 38.0953 43.17 38.0953 43.394C38.0953 44.01 37.9973 44.612 37.8013 45.2C37.6053 45.7787 37.2927 46.2873 36.8633 46.726C35.9393 47.7247 34.712 48.224 33.1813 48.224ZM42.8496 48.224C42.1496 48.224 41.5196 48.056 40.9596 47.72C40.3996 47.384 39.961 46.9267 39.6436 46.348C39.3356 45.7693 39.1816 45.13 39.1816 44.43C39.1816 43.73 39.3356 43.0907 39.6436 42.512C39.961 41.9333 40.3996 41.476 40.9596 41.14C41.5196 40.804 42.1496 40.636 42.8496 40.636C43.5496 40.636 44.1796 40.804 44.7396 41.14C45.2996 41.476 45.7336 41.9333 46.0416 42.512C46.359 43.0907 46.5176 43.73 46.5176 44.43C46.5176 45.13 46.359 45.7693 46.0416 46.348C45.7336 46.9267 45.2996 47.384 44.7396 47.72C44.1796 48.056 43.5496 48.224 42.8496 48.224ZM42.8496 47.146C43.2883 47.146 43.6943 47.0387 44.0676 46.824C44.4503 46.6 44.7536 46.2827 44.9776 45.872C45.211 45.4613 45.3276 44.9807 45.3276 44.43C45.3276 43.8793 45.211 43.3987 44.9776 42.988C44.7536 42.5773 44.4503 42.2647 44.0676 42.05C43.6943 41.826 43.2883 41.714 42.8496 41.714C42.411 41.714 42.0003 41.826 41.6176 42.05C41.235 42.2647 40.927 42.5773 40.6936 42.988C40.4696 43.3987 40.3576 43.8793 40.3576 44.43C40.3576 44.9807 40.4696 45.4613 40.6936 45.872C40.927 46.2827 41.235 46.6 41.6176 46.824C42.0003 47.0387 42.411 47.146 42.8496 47.146ZM51.1895 48.224C50.4895 48.224 49.8595 48.056 49.2995 47.72C48.7395 47.384 48.3008 46.9267 47.9835 46.348C47.6755 45.7693 47.5215 45.13 47.5215 44.43C47.5215 43.73 47.6755 43.0907 47.9835 42.512C48.3008 41.9333 48.7395 41.476 49.2995 41.14C49.8595 40.804 50.4895 40.636 51.1895 40.636C51.8895 40.636 52.5195 40.804 53.0795 41.14C53.6395 41.476 54.0735 41.9333 54.3815 42.512C54.6988 43.0907 54.8575 43.73 54.8575 44.43C54.8575 45.13 54.6988 45.7693 54.3815 46.348C54.0735 46.9267 53.6395 47.384 53.0795 47.72C52.5195 48.056 51.8895 48.224 51.1895 48.224ZM51.1895 47.146C51.6282 47.146 52.0342 47.0387 52.4075 46.824C52.7902 46.6 53.0935 46.2827 53.3175 45.872C53.5508 45.4613 53.6675 44.9807 53.6675 44.43C53.6675 43.8793 53.5508 43.3987 53.3175 42.988C53.0935 42.5773 52.7902 42.2647 52.4075 42.05C52.0342 41.826 51.6282 41.714 51.1895 41.714C50.7508 41.714 50.3402 41.826 49.9575 42.05C49.5748 42.2647 49.2668 42.5773 49.0335 42.988C48.8095 43.3987 48.6975 43.8793 48.6975 44.43C48.6975 44.9807 48.8095 45.4613 49.0335 45.872C49.2668 46.2827 49.5748 46.6 49.9575 46.824C50.3402 47.0387 50.7508 47.146 51.1895 47.146ZM59.3753 51.248C58.5353 51.248 57.84 51.052 57.2893 50.66C56.748 50.268 56.384 49.7967 56.1973 49.246L57.2753 48.784C57.434 49.1947 57.6953 49.526 58.0593 49.778C58.4327 50.0393 58.8713 50.17 59.3753 50.17C60.1127 50.17 60.682 49.9553 61.0833 49.526C61.494 49.0967 61.6993 48.49 61.6993 47.706V46.908H61.6433C61.41 47.272 61.0787 47.5707 60.6493 47.804C60.2293 48.028 59.7487 48.14 59.2073 48.14C58.5913 48.14 58.0267 47.9813 57.5133 47.664C57.0093 47.3467 56.608 46.9033 56.3093 46.334C56.0107 45.7647 55.8613 45.116 55.8613 44.388C55.8613 43.6693 56.0107 43.0253 56.3093 42.456C56.608 41.8773 57.0093 41.4293 57.5133 41.112C58.0267 40.7947 58.5913 40.636 59.2073 40.636C59.7487 40.636 60.2293 40.7527 60.6493 40.986C61.0787 41.21 61.41 41.5087 61.6433 41.882H61.6993V40.86H62.8333V47.72C62.8333 48.868 62.516 49.7407 61.8813 50.338C61.2467 50.9447 60.4113 51.248 59.3753 51.248ZM59.3753 47.062C59.8047 47.062 60.192 46.9547 60.5373 46.74C60.892 46.5253 61.172 46.2173 61.3773 45.816C61.592 45.4147 61.6993 44.9387 61.6993 44.388C61.6993 43.828 61.592 43.3473 61.3773 42.946C61.172 42.5447 60.892 42.2413 60.5373 42.036C60.192 41.8213 59.8047 41.714 59.3753 41.714C58.946 41.714 58.554 41.8213 58.1993 42.036C57.8447 42.2507 57.56 42.5587 57.3453 42.96C57.14 43.3613 57.0373 43.8373 57.0373 44.388C57.0373 44.9387 57.14 45.4193 57.3453 45.83C57.56 46.2313 57.8447 46.5393 58.1993 46.754C58.554 46.9593 58.946 47.062 59.3753 47.062ZM64.5928 37.976H65.7828V48H64.5928V37.976ZM70.6556 48.224C69.9743 48.224 69.3629 48.0607 68.8216 47.734C68.2803 47.4073 67.8556 46.9593 67.5476 46.39C67.2489 45.8113 67.0996 45.1627 67.0996 44.444C67.0996 43.7533 67.2396 43.1187 67.5196 42.54C67.8089 41.9613 68.2149 41.4993 68.7376 41.154C69.2603 40.8087 69.8669 40.636 70.5576 40.636C71.2576 40.636 71.8643 40.7947 72.3776 41.112C72.8909 41.42 73.2829 41.8493 73.5536 42.4C73.8336 42.9507 73.9736 43.5807 73.9736 44.29C73.9736 44.43 73.9596 44.5513 73.9316 44.654H68.2896C68.3176 45.1953 68.4483 45.6527 68.6816 46.026C68.9149 46.3993 69.2089 46.6793 69.5636 46.866C69.9276 47.0527 70.3056 47.146 70.6976 47.146C71.6123 47.146 72.3169 46.7167 72.8116 45.858L73.8196 46.348C73.5116 46.9267 73.0916 47.384 72.5596 47.72C72.0369 48.056 71.4023 48.224 70.6556 48.224ZM72.7136 43.674C72.6949 43.3753 72.6109 43.0767 72.4616 42.778C72.3123 42.4793 72.0743 42.2273 71.7476 42.022C71.4303 41.8167 71.0289 41.714 70.5436 41.714C69.9836 41.714 69.5076 41.896 69.1156 42.26C68.7329 42.6147 68.4809 43.086 68.3596 43.674H72.7136Z" fill="#403F41"/>
<path d="M36.6338 54.88H37.6538V57.652H37.7018L40.2818 54.88H41.5658V54.928L38.8058 57.784L41.6858 60.952V61H40.4378L37.7018 57.916H37.6538V61H36.6338V54.88ZM44.332 61.192C43.884 61.192 43.484 61.104 43.132 60.928C42.78 60.752 42.508 60.512 42.316 60.208C42.124 59.896 42.028 59.544 42.028 59.152C42.028 58.504 42.272 58 42.76 57.64C43.248 57.272 43.864 57.088 44.608 57.088C44.976 57.088 45.316 57.128 45.628 57.208C45.948 57.288 46.192 57.38 46.36 57.484V57.112C46.36 56.656 46.2 56.292 45.88 56.02C45.56 55.74 45.156 55.6 44.668 55.6C44.324 55.6 44.008 55.676 43.72 55.828C43.432 55.972 43.204 56.176 43.036 56.44L42.268 55.864C42.508 55.496 42.836 55.208 43.252 55C43.676 54.792 44.144 54.688 44.656 54.688C45.488 54.688 46.14 54.908 46.612 55.348C47.092 55.78 47.332 56.372 47.332 57.124V61H46.36V60.124H46.312C46.136 60.42 45.872 60.672 45.52 60.88C45.168 61.088 44.772 61.192 44.332 61.192ZM44.428 60.292C44.772 60.292 45.092 60.204 45.388 60.028C45.684 59.852 45.92 59.616 46.096 59.32C46.272 59.024 46.36 58.7 46.36 58.348C46.168 58.22 45.932 58.116 45.652 58.036C45.372 57.956 45.076 57.916 44.764 57.916C44.204 57.916 43.78 58.032 43.492 58.264C43.212 58.496 43.072 58.796 43.072 59.164C43.072 59.5 43.2 59.772 43.456 59.98C43.712 60.188 44.036 60.292 44.428 60.292ZM48.703 54.88H49.675V55.792H49.723C49.907 55.48 50.183 55.22 50.551 55.012C50.927 54.796 51.347 54.688 51.811 54.688C52.355 54.688 52.851 54.828 53.299 55.108C53.747 55.388 54.099 55.776 54.355 56.272C54.611 56.768 54.739 57.324 54.739 57.94C54.739 58.564 54.611 59.124 54.355 59.62C54.099 60.108 53.747 60.492 53.299 60.772C52.851 61.052 52.355 61.192 51.811 61.192C51.347 61.192 50.927 61.088 50.551 60.88C50.183 60.664 49.907 60.404 49.723 60.1H49.675L49.723 60.94V63.592H48.703V54.88ZM51.691 60.268C52.043 60.268 52.375 60.172 52.687 59.98C52.999 59.788 53.247 59.516 53.431 59.164C53.623 58.804 53.719 58.396 53.719 57.94C53.719 57.484 53.623 57.08 53.431 56.728C53.247 56.368 52.999 56.092 52.687 55.9C52.375 55.708 52.043 55.612 51.691 55.612C51.339 55.612 51.007 55.708 50.695 55.9C50.383 56.092 50.135 56.364 49.951 56.716C49.767 57.068 49.675 57.476 49.675 57.94C49.675 58.404 49.767 58.812 49.951 59.164C50.135 59.516 50.383 59.788 50.695 59.98C51.007 60.172 51.339 60.268 51.691 60.268ZM57.3777 55.804H55.3857V54.88H60.3897V55.804H58.3857V61H57.3777V55.804ZM61.4659 54.88H62.4859V57.028H64.3819C64.7739 57.028 65.1299 57.112 65.4499 57.28C65.7779 57.448 66.0339 57.684 66.2179 57.988C66.4019 58.292 66.4939 58.636 66.4939 59.02C66.4939 59.404 66.4019 59.748 66.2179 60.052C66.0339 60.348 65.7779 60.58 65.4499 60.748C65.1299 60.916 64.7739 61 64.3819 61H61.4659V54.88ZM67.4419 54.88H68.4499V61H67.4419V54.88ZM64.3579 60.076C64.6619 60.076 64.9219 59.98 65.1379 59.788C65.3539 59.588 65.4619 59.332 65.4619 59.02C65.4619 58.708 65.3539 58.452 65.1379 58.252C64.9219 58.052 64.6619 57.952 64.3579 57.952H62.4859V60.076H64.3579Z" fill="#8F8F8F"/>
<g clip-path="url(#clip0_2145_16319)">
<path d="M14.6368 34.5093C15.6995 35.8734 16.7818 37.5886 17.3481 38.6247C18.0379 39.9715 18.3239 40.8809 18.837 42.5098C19.137 43.4019 19.423 43.6724 20.023 43.6724C20.6791 43.6724 20.9791 43.2177 21.209 42.5098C21.6885 40.9816 22.0586 39.819 22.6446 38.711C24.9045 34.3367 28.5887 31.2286 30.6636 26.9694C30.6636 26.9694 32.029 24.3678 32.029 20.7244C32.029 17.3286 30.6832 14.9688 30.6832 14.9688L14.6453 34.5381L14.6368 34.5093Z" fill="#34A853"/>
<path d="M9.19712 26.5096C10.4897 29.5314 12.9543 32.179 14.6366 34.5101L23.5527 23.6606C23.5527 23.6606 22.2938 25.3527 20.0199 25.3527C17.4852 25.3527 15.4216 23.2807 15.4216 20.6618C15.4216 18.8603 16.4675 17.6113 16.4675 17.6113C9.90649 18.6128 10.271 20.2446 9.17749 26.5039L9.19712 26.5096Z" fill="#FBBC04"/>
<path d="M23.6648 8.88867C26.6369 9.87002 29.1603 11.9392 30.6744 14.9609L23.5527 23.6808C23.5527 23.6808 24.5985 22.4261 24.5985 20.6303C24.5985 17.9568 22.4003 15.9394 20.0283 15.9394C17.7768 15.9394 16.4954 17.6114 16.4954 17.6114C17.0422 16.3337 22.6919 9.32323 23.6732 8.89155L23.6648 8.88867Z" fill="#4285F4"/>
<path d="M10.8235 12.7254C12.5955 10.5612 15.7022 8.32227 19.992 8.32227C22.0641 8.32227 23.637 8.88632 23.637 8.88632L16.4872 17.6062C16.005 17.3377 11.3001 13.5772 10.8235 12.7139V12.7254Z" fill="#1A73E8"/>
<path d="M9.19715 26.51C9.19715 26.51 8.02795 24.1272 8.02795 20.6968C8.02795 17.4448 9.26725 14.5957 10.8318 12.7539L16.4955 17.6463L9.20556 26.51H9.19715Z" fill="#EA4335"/>
</g>
<defs>
<clipPath id="clip0_2145_16319">
<rect width="25" height="37" fill="white" transform="translate(7 7)"/>
</clipPath>
</defs>
</svg>
