<svg width="25" height="20" viewBox="0 0 25 20" fill="none" xmlns="http://www.w3.org/2000/svg">
<path d="M12.8837 11.2556C12.8077 11.2556 12.7325 11.2388 12.6581 11.206L1.23087 6.09239C1.01567 5.99639 0.878867 5.77639 0.883667 5.53079C0.888467 5.28839 1.03647 5.06839 1.25167 4.98439L12.6805 0.43959C12.7461 0.41399 12.8141 0.400391 12.8837 0.400391C12.9525 0.400391 13.0213 0.41399 13.0869 0.43959L24.5149 4.98279C24.7349 5.07079 24.8789 5.28519 24.8837 5.52919C24.8901 5.77559 24.7533 5.99639 24.5365 6.09239L13.1085 11.2084C13.0373 11.2396 12.9605 11.2556 12.8837 11.2556Z" fill="#9E9E9E"/>
<path d="M1.23091 10.3918C0.94211 10.2614 0.80691 9.90859 0.93011 9.60539C1.02051 9.38539 1.22771 9.24219 1.45731 9.24219C1.53491 9.24219 1.61011 9.25899 1.68291 9.29179L12.8565 14.291L24.0861 9.29179C24.1597 9.25819 24.2349 9.24219 24.3125 9.24219C24.5413 9.24219 24.7477 9.38379 24.8373 9.60539C24.9613 9.90859 24.8261 10.2614 24.5365 10.3918L12.8837 15.6062L1.23091 10.3918Z" fill="#BEBEBE"/>
<path d="M1.23087 14.3843C0.941274 14.2531 0.806074 13.9011 0.930074 13.5995C1.02047 13.3795 1.22767 13.2363 1.45727 13.2363C1.53487 13.2363 1.61007 13.2531 1.68287 13.2851L12.8565 18.2851L24.0861 13.2851C24.1581 13.2539 24.2349 13.2363 24.3125 13.2363C24.5413 13.2363 24.7477 13.3795 24.8373 13.5995C24.9613 13.9019 24.8261 14.2547 24.5373 14.3843L12.8837 19.6003L1.23087 14.3843Z" fill="#BEBEBE"/>
</svg>
