<svg width="33" height="32" viewBox="0 0 33 32" fill="none" xmlns="http://www.w3.org/2000/svg">
<g clip-path="url(#clip0_2273_7543)">
<path d="M16.8838 9.25195C14.1238 9.25195 11.8838 11.492 11.8838 14.2519C11.8838 16.9586 14.0038 19.1586 16.8171 19.2386C16.8571 19.2386 16.9105 19.2386 16.9371 19.2386C16.9638 19.2386 17.0038 19.2386 17.0305 19.2386C17.0438 19.2386 17.0571 19.2386 17.0571 19.2386C19.7505 19.1452 21.8705 16.9586 21.8838 14.2519C21.8838 11.492 19.6438 9.25195 16.8838 9.25195Z" fill="#9E9E9E"/>
<path d="M25.4668 24.7032C25.834 25.3469 25.5912 26.1378 25.0035 26.5892C22.7575 28.3143 19.9438 29.347 16.8847 29.347C13.8256 29.347 11.0119 28.3143 8.76592 26.5892C8.17824 26.1378 7.9359 25.3469 8.30481 24.7042C8.74994 23.9287 9.43009 23.225 10.2981 22.6403C13.9381 20.2136 19.8581 20.2136 23.4714 22.6403C24.3481 23.2248 25.0247 23.9282 25.4668 24.7032Z" fill="#9E9E9E"/>
<path fill-rule="evenodd" clip-rule="evenodd" d="M18.0708 4.00582C17.93 4.02059 17.791 4.06359 17.6654 4.13652L13.7007 6.43744C13.1211 6.77379 12.7064 7.28612 12.5375 7.87438L10.9333 13.4602L23.0667 13.8664L21.3342 7.45648C21.2457 7.12915 21.0804 6.82129 20.8486 6.55227L18.9298 4.32506C18.8072 4.18277 18.6407 4.08509 18.4585 4.03621L16.2941 5.86367C15.5374 6.50264 14.9874 7.35196 14.714 8.30393L13.2667 13.3438H12.8L14.2427 8.32012C14.519 7.35806 15.0777 6.50107 15.8464 5.86006L17.7809 4.24704C17.8776 4.16645 17.9581 4.06178 18.0708 4.00582Z" fill="#ECECEC"/>
<path d="M12.8 13.3438H13.2667L14.714 8.30393C14.9874 7.35196 15.5374 6.50264 16.2941 5.86367L18.4585 4.03621C18.3337 4.00271 18.2014 3.99213 18.0708 4.00582C17.9581 4.06178 17.8776 4.16645 17.7809 4.24704L15.8464 5.86006C15.0777 6.50107 14.519 7.35806 14.2427 8.32012L12.8 13.3438Z" fill="#B9B9B9"/>
<path d="M10.1208 11.6424C10.0632 11.2914 10.3802 10.9941 10.7268 11.0743L12.3012 11.4382C12.514 11.4874 12.6702 11.669 12.6871 11.8867L12.7253 12.3796C12.7566 12.7842 13.2315 12.9849 13.5435 12.7254L14.8677 11.6242C14.9486 11.557 15.0485 11.517 15.1534 11.5098L23.3704 10.9492C23.692 10.9273 23.95 11.2109 23.8978 11.529L23.5972 13.3608C23.5597 13.589 23.3707 13.7618 23.14 13.7785L12.8246 14.5269C12.5019 14.5503 12.1784 14.495 11.8817 14.3659L10.7164 13.8587C10.5607 13.7909 10.4501 13.6488 10.4226 13.4812L10.1208 11.6424Z" fill="#D9D9D9"/>
</g>
<defs>
<clipPath id="clip0_2273_7543">
<rect width="32" height="32" fill="white" transform="translate(0.883789)"/>
</clipPath>
</defs>
</svg>
