<svg width="21" height="18" viewBox="0 0 21 18" fill="none" xmlns="http://www.w3.org/2000/svg">
<path fill-rule="evenodd" clip-rule="evenodd" d="M6.66504 0C3.42078 0 0.883789 2.81981 0.883789 6.1559C0.883789 7.8911 1.16147 9.32 2.19662 10.8234C3.18429 12.258 4.82669 13.7056 7.37513 15.6155L9.19757 16.854C10.2153 17.5457 11.5523 17.5457 12.57 16.8541L14.3922 15.6158C16.9408 13.7058 18.5833 12.258 19.571 10.8234C20.6061 9.32 20.8838 7.8911 20.8838 6.1559C20.8838 2.81982 18.3468 0 15.1026 0C13.8103 0 12.6558 0.417958 11.6436 1.19064C11.1998 1.52937 10.5678 1.52937 10.124 1.19064C9.11172 0.417959 7.95728 0 6.66504 0ZM6.66504 2C4.6593 2 2.88379 3.7855 2.88379 6.1559C2.88379 6.7049 2.91486 7.1875 2.99232 7.6325C3.12205 8.378 3.38193 9.0182 3.84393 9.6893C4.62911 10.8297 6.0324 12.11 8.57535 14.0157L9.0822 14.3964C10.1495 15.1979 11.6181 15.1979 12.6854 14.3963L13.1922 14.0157C15.7352 12.11 17.1385 10.8297 17.9237 9.6893C18.6615 8.6176 18.8838 7.6245 18.8838 6.1559C18.8838 3.7855 17.1083 2 15.1026 2C13.8669 2 12.7339 2.58627 11.6871 3.99831C11.4985 4.25274 11.2005 4.40277 10.8838 4.40277C10.5671 4.40277 10.2691 4.25274 10.0805 3.99831C9.03369 2.58627 7.90068 2 6.66504 2Z" fill="#FF6F32"/>
</svg>
