<svg width="33" height="32" viewBox="0 0 33 32" fill="none" xmlns="http://www.w3.org/2000/svg">
<rect x="0.883789" width="32" height="32" rx="16" fill="#EFF1F4" fill-opacity="0.7"/>
<path fill-rule="evenodd" clip-rule="evenodd" d="M12.665 8C9.42078 8 6.88379 10.8198 6.88379 14.1559C6.88379 15.8911 7.16147 17.32 8.19662 18.8234C9.18429 20.258 10.8267 21.7056 13.3751 23.6155L15.1976 24.854C16.2153 25.5457 17.5523 25.5457 18.57 24.8541L20.3922 23.6158C22.9408 21.7058 24.5833 20.258 25.571 18.8234C26.6061 17.32 26.8838 15.8911 26.8838 14.1559C26.8838 10.8198 24.3468 8 21.1026 8C19.8103 8 18.6558 8.41796 17.6436 9.19064C17.1998 9.52937 16.5678 9.52937 16.124 9.19064C15.1117 8.41796 13.9573 8 12.665 8ZM12.665 10C10.6593 10 8.88379 11.7855 8.88379 14.1559C8.88379 14.7049 8.91486 15.1875 8.99232 15.6325C9.12205 16.378 9.38193 17.0182 9.84393 17.6893C10.6291 18.8297 12.0324 20.11 14.5753 22.0157L15.0822 22.3964C16.1495 23.1979 17.6181 23.1979 18.6854 22.3963L19.1922 22.0157C21.7352 20.11 23.1385 18.8297 23.9237 17.6893C24.6615 16.6176 24.8838 15.6245 24.8838 14.1559C24.8838 11.7855 23.1083 10 21.1026 10C19.8669 10 18.7339 10.5863 17.6871 11.9983C17.4985 12.2527 17.2005 12.4028 16.8838 12.4028C16.5671 12.4028 16.2691 12.2527 16.0805 11.9983C15.0337 10.5863 13.9007 10 12.665 10Z" fill="#FF6F32"/>
</svg>
