<svg width="61" height="49" viewBox="0 0 61 49" fill="none" xmlns="http://www.w3.org/2000/svg">
<circle cx="5.76478" cy="11.9413" r="2.47059" fill="#9EA9B7"/>
<path d="M6.38208 12.7656L8.4409 15.648" stroke="#9EA9B7"/>
<circle cx="2.47059" cy="2.47059" r="2.47059" transform="matrix(-1 0 0 1 57.8534 9.88281)" fill="#9EA9B7"/>
<path d="M54.7652 13.1777L52.7064 16.0601" stroke="#9EA9B7"/>
<path d="M5.76471 20.7941V17.2733C5.76471 15.9203 6.8615 14.8235 8.21446 14.8235C9.50156 14.8235 10.5692 13.8275 10.6583 12.5435L11.3355 2.79217C11.4447 1.21976 12.7521 0 14.3283 0H46.2775C47.8219 0 49.114 1.17253 49.2634 2.7097L50.2232 12.5813C50.3468 13.8533 51.416 14.8235 52.694 14.8235C54.065 14.8235 55.1765 15.935 55.1765 17.306V20.8971C55.1765 21.4087 55.5913 21.8235 56.1029 21.8235C56.6146 21.8235 57.0294 22.2383 57.0294 22.75V27.3824C57.0294 27.7235 57.3059 28 57.6471 28C57.9882 28 58.2647 28.2765 58.2647 28.6176V34.6912C58.2647 35.2029 58.6795 35.6176 59.1912 35.6176C59.7029 35.6176 60.1176 36.0324 60.1176 36.5441V39.4265C60.1176 39.9381 59.7029 40.3529 59.1912 40.3529C58.6795 40.3529 58.2647 40.7677 58.2647 41.2794V44.6765C58.2647 47.0643 56.329 49 53.9412 49H51.7794C49.5621 49 47.7647 47.2026 47.7647 44.9853C47.7647 42.768 45.9673 40.9706 43.75 40.9706H35.5147C34.5124 40.9706 33.5371 41.2957 32.7353 41.8971L32.5706 42.0206C31.8757 42.5418 31.0304 42.8235 30.1618 42.8235C29.2931 42.8235 28.4479 42.5418 27.7529 42.0206L27.5882 41.8971C26.7864 41.2957 25.8111 40.9706 24.8088 40.9706H16.1618C13.9445 40.9706 12.1471 42.768 12.1471 44.9853C12.1471 47.2026 10.3496 49 8.13235 49H5.97059C3.58277 49 1.64706 47.0643 1.64706 44.6765V41.1765C1.64706 40.7216 1.27835 40.3529 0.823529 40.3529C0.368706 40.3529 0 39.9842 0 39.5294V36.4412C0 35.9864 0.368706 35.6176 0.823529 35.6176C1.27835 35.6176 1.64706 35.2489 1.64706 34.7941V29.0294C1.64706 28.4609 2.10794 28 2.67647 28C3.245 28 3.70588 27.5391 3.70588 26.9706V22.8529C3.70588 22.2844 4.16677 21.8235 4.73529 21.8235C5.30382 21.8235 5.76471 21.3626 5.76471 20.7941Z" fill="#9EA9B7"/>
<path d="M13.7544 3.71875C13.7544 2.61418 14.6498 1.71875 15.7544 1.71875H44.4211C45.5256 1.71875 46.4211 2.61418 46.4211 3.71875V10.8942C46.4211 11.9988 45.5256 12.8942 44.4211 12.8942H15.7544C14.6498 12.8942 13.7544 11.9988 13.7544 10.8942V3.71875Z" fill="#E9F3FF"/>
<path d="M24.9299 12.8941C19.9887 12.8941 21.0506 12.8941 15.9036 12.8941C15.9036 11.4159 17.9946 10.7051 20.3824 10.7051C22.7702 10.7051 24.9299 11.4159 24.9299 12.8941Z" fill="#707883"/>
<path d="M44.4708 12.8941C39.3237 12.8941 43.4414 12.8941 35.8237 12.8941C35.8237 11.4159 37.7594 10.7051 40.1473 10.7051C42.5351 10.7051 44.4708 11.4159 44.4708 12.8941Z" fill="#707883"/>
<circle cx="49.8596" cy="19.7645" r="3.70588" fill="#E9F3FF"/>
<circle cx="11.1178" cy="19.7645" r="3.70588" fill="#E9F3FF"/>
<rect x="16.4709" y="22.6465" width="2.88235" height="14.4118" rx="1.44118" fill="#E9F3FF"/>
<rect x="20.5885" y="22.6465" width="2.88235" height="14.4118" rx="1.44118" fill="#E9F3FF"/>
<rect x="24.7059" y="22.6465" width="2.88235" height="14.4118" rx="1.44118" fill="#E9F3FF"/>
<rect x="28.8236" y="22.6465" width="2.88235" height="14.4118" rx="1.44118" fill="#E9F3FF"/>
<rect x="32.9414" y="22.6465" width="2.88235" height="14.4118" rx="1.44118" fill="#E9F3FF"/>
<rect x="37.0591" y="22.6465" width="2.88235" height="14.4118" rx="1.44118" fill="#E9F3FF"/>
<rect x="41.1765" y="22.6465" width="2.88235" height="14.4118" rx="1.44118" fill="#E9F3FF"/>
<circle cx="40.1472" cy="7.20577" r="2.67647" fill="#707883"/>
<circle cx="20.3824" cy="7.20577" r="2.67647" fill="#707883"/>
</svg>
