<svg width="24" height="24" viewBox="0 0 24 24" fill="none" xmlns="http://www.w3.org/2000/svg">
<circle cx="12" cy="12" r="11.5" stroke="#A5A5A5"/>
<path d="M15.2131 6.28683H14.5702V4.14397C14.5702 3.74948 14.2824 3.42969 13.9274 3.42969C13.5723 3.42969 13.2845 3.74948 13.2845 4.14397V6.28683H10.7131V4.14397C10.7131 3.74948 10.4253 3.42969 10.0702 3.42969C9.7152 3.42969 9.42739 3.74948 9.42739 4.14397V6.28683H8.78453C7.71941 6.28683 6.85596 7.24622 6.85596 8.42969V10.0478C6.85596 11.1142 7.56168 12.0183 8.51179 12.1692L15.304 13.2473C15.6207 13.2976 15.856 13.5989 15.856 13.9544V15.5725C15.856 15.967 15.5681 16.2868 15.2131 16.2868H8.78453C8.42949 16.2868 8.14167 15.967 8.14167 15.5725C8.14167 15.1781 7.85385 14.8583 7.49881 14.8583C7.14377 14.8583 6.85596 15.1781 6.85596 15.5725C6.85596 16.756 7.71941 17.7154 8.78453 17.7154H9.42739V19.8583C9.42739 20.2528 9.7152 20.5725 10.0702 20.5725C10.4253 20.5725 10.7131 20.2528 10.7131 19.8583V17.7154H13.2845V19.8583C13.2845 20.2528 13.5723 20.5725 13.9274 20.5725C14.2824 20.5725 14.5702 20.2528 14.5702 19.8583V17.7154H15.2131C16.2782 17.7154 17.1417 16.756 17.1417 15.5725V13.9544C17.1417 12.888 16.436 11.9839 15.4858 11.8331L8.69361 10.7549C8.37691 10.7047 8.14167 10.4033 8.14167 10.0478V8.42969C8.14167 8.0352 8.42949 7.7154 8.78453 7.7154H15.2131C15.5681 7.7154 15.856 8.0352 15.856 8.42969C15.856 8.82418 16.1438 9.14397 16.4988 9.14397C16.8539 9.14397 17.1417 8.82418 17.1417 8.42969C17.1417 7.24622 16.2782 6.28683 15.2131 6.28683Z" fill="#727272"/>
</svg>
