<svg width="36" height="24" viewBox="0 0 36 24" fill="none" xmlns="http://www.w3.org/2000/svg">
<path d="M19.0314 0.416657C18.9193 0.163126 18.6712 0 18.3976 0C18.1241 0 17.876 0.163126 17.764 0.416657L15.8074 4.84512L11.0567 5.36695C10.7847 5.39683 10.5553 5.5861 10.4708 5.8504C10.3863 6.11469 10.4623 6.40476 10.6651 6.59138L14.2065 9.8501L13.227 14.6011C13.1709 14.8731 13.2773 15.1532 13.4986 15.3165C13.7199 15.4799 14.015 15.496 14.2523 15.3578L18.3976 12.9434L22.543 15.3578C22.7803 15.496 23.0754 15.4799 23.2968 15.3165C23.518 15.1532 23.6244 14.8731 23.5683 14.6011L22.5888 9.8501L26.1302 6.59138C26.333 6.40476 26.409 6.11469 26.3245 5.8504C26.24 5.5861 26.0106 5.39683 25.7386 5.36695L20.9879 4.84512L19.0314 0.416657Z" fill="#A5A5A5"/>
<path d="M5.94961 11.3991C5.78732 11.3041 5.58246 11.3159 5.42635 11.4292C5.27027 11.5425 5.19199 11.7363 5.22643 11.9241L5.82808 15.2044L3.31973 17.4632C3.17613 17.5925 3.11867 17.7931 3.17297 17.9755C3.22727 18.1579 3.38321 18.2882 3.57131 18.3083L6.85638 18.659L8.1407 21.7145C8.21423 21.8894 8.38357 22.0016 8.57323 22.001C8.76289 22.0005 8.93754 21.8872 9.01933 21.7119L10.448 18.6483L13.7501 18.2779C13.9391 18.2567 14.1012 18.1255 14.1642 17.9427C14.2271 17.7599 14.1791 17.5596 14.0415 17.4312L11.6394 15.1871L12.3959 11.9027C12.4392 11.7146 12.3701 11.5214 12.2193 11.409C12.0685 11.2966 11.8642 11.286 11.6974 11.382L8.78417 13.0586L5.94961 11.3991Z" fill="#D8D8D8"/>
<path d="M31.5673 11.9707C31.6035 11.7832 31.527 11.5887 31.3719 11.4739C31.2169 11.3591 31.0122 11.3454 30.849 11.4388L27.9992 13.0708L25.1016 11.3661C24.9357 11.2685 24.7313 11.2771 24.5795 11.388C24.4277 11.4989 24.3568 11.6915 24.3983 11.88L25.1244 15.1716L22.7015 17.3923C22.5628 17.5195 22.513 17.7193 22.5742 17.9027C22.6354 18.086 22.7963 18.2188 22.9851 18.2419L26.2836 18.6441L27.6839 21.7214C27.764 21.8976 27.9376 22.0124 28.1273 22.0149C28.3169 22.0173 28.4873 21.9067 28.5624 21.7325L29.875 18.6895L33.1632 18.3706C33.3514 18.3523 33.5086 18.2236 33.5646 18.0417C33.6206 17.8598 33.565 17.6587 33.4226 17.528L30.9353 15.2451L31.5673 11.9707Z" fill="#D8D8D8"/>
</svg>
