<svg width="60" height="51" viewBox="0 0 60 51" fill="none" xmlns="http://www.w3.org/2000/svg">
<path d="M15 20C15 20 14.7146 18.7866 11.645 18.878C9.0216 18.956 6.44977 20.1715 5.13821 22.4448C3.54925 25.1989 2.61052 28.8936 0.625822 32.6573C0.321333 33.2347 0.610336 33.9586 1.2377 34.139L7.23173 35.8626C7.86907 36.0459 8.51229 35.5742 8.54609 34.9119C8.73543 31.2017 9.73497 20.8693 15 20Z" fill="#C5D3E4"/>
<path d="M18.5711 29.9033C18.0995 29.5703 16.9945 33.6036 14.7751 30.0044C13.4741 27.8945 12.9606 25.2447 13.7808 22.9056C15.716 17.3874 21.9682 17.9964 21.9682 17.9964L25.7556 18.501C28.2406 18.8322 30.7588 18.8281 33.2428 18.4888L34.591 18.3047C35.9256 18.1225 36.9597 17.0577 37.2392 15.74C40.4558 0.574056 53.0693 1.89905 56.5322 2.56563C57.0405 2.66347 57.3424 3.15452 57.2466 3.66314L57.0112 4.91211C56.9381 5.30019 56.9821 5.69987 57.1176 6.07078C57.4236 6.90799 57.9482 8.53885 58 10C58.0536 11.5035 59.0797 14.4228 59.6409 15.917C59.8349 16.4336 59.5863 17.0152 59.075 17.2224L57.0004 18.0633C56.5237 18.2565 55.9781 18.0565 55.7392 17.6009L54.6832 15.5872C54.6832 15.5872 50.8429 15.4388 49.9567 12.1777C49.9567 12.1777 47.5599 19.2981 48.5537 25.7415C49.5 34.5 44 29.5 42.9411 29.903C36.938 29.9035 30.7025 29.9033 18.5711 29.9033Z" fill="#C5D3E4"/>
<path d="M20.295 38.2975C20.1208 37.8813 20.2471 37.4008 20.5627 37.0784C21.7379 35.8783 23.2694 33.6692 23.9843 32.6047C24.2261 32.2447 24.6681 32.0756 25.0875 32.1856C25.7041 32.3471 26.6189 32.5839 27.3824 32.7698C27.9299 32.9031 28.2584 33.4518 27.9855 33.9447C27.4911 34.8375 26.6919 35.8609 26.1982 36.6301C26.039 36.8781 26.0214 37.1866 26.1285 37.4611L30.424 48.4639C30.545 48.7938 30.5498 49.2486 30.3123 49.4671C30.0749 49.6855 29.7021 49.906 29.3436 49.906H25.8797C25.4048 49.906 24.9577 49.5905 24.8367 49.1536L20.295 38.2975Z" fill="#B0BECE"/>
<path d="M44.1154 33.9758C43.7761 33.5372 43.8522 32.8972 44.2284 32.4898C45.3239 31.3032 46.6637 29.3468 47.0686 28.7448C47.1498 28.6241 47.2007 28.4895 47.2271 28.3464C47.3459 27.7021 47.7544 25.8495 48.5 25.9988C49.0392 29.5039 50.5266 32.538 52.4938 35.4888L53.0552 36.3309C53.3407 36.7591 53.45 37.2803 53.3642 37.7878C52.9668 40.1379 52.4437 43.432 51.5033 46.1703C51.3978 46.4776 51.2278 46.7691 50.9312 46.9016C50.6836 47.0122 50.4026 46.9157 50.1666 46.7824C49.5694 46.4449 48.584 45.957 47.8179 45.4517C46.9663 44.8901 46.8521 43.856 47.0867 42.8632L47.7805 39.9268C47.9193 39.3394 47.7854 38.7207 47.4161 38.2432L44.1154 33.9758Z" fill="#B0BECE"/>
<path d="M14.1603 31.5C13.8656 30.169 13.1731 30.0185 13.0273 27.1603C12.9879 26.39 13.0521 25.6133 13.2231 24.8612C13.7436 22.5723 14.4545 21.5349 14.1603 24.9993L48.5 25.4993C48.6149 26.3873 48.6149 27.4096 48.6149 27.8645C48.6149 30.5607 47.0072 32.4494 45.8375 33.4653C45.4155 33.8319 45.1112 34.3192 45.0439 34.8741C44.6925 37.7684 43.8157 45.5363 44.2805 49.6369C44.354 50.2857 43.8646 50.9053 43.2117 50.9053H39.0518C38.4797 50.9053 38.024 50.4288 38.0432 49.857C38.162 46.3072 38.1158 40.7986 38.1531 37.6727C38.1668 36.5181 37.2454 35.5129 36.0946 35.4187C31.8977 35.0751 28.5144 34.237 26.3759 33.5803C25.8275 33.4118 25.2457 33.7246 25.0094 34.2473C23.96 36.5684 21.6932 38.463 19.862 39.7036C18.6552 40.5211 17.8479 41.8419 17.8479 43.2996V49.8081C17.8479 50.4678 17.3729 50.9053 16.6559 50.9053H13.1915C12.4745 50.9053 12 50.4678 12 49.8081V38.9304C12 35.8811 14.8241 34.4991 14.1603 31.5Z" fill="#C5D3E4"/>
<path d="M33.5954 6.51944C31.7979 6.51944 30.3408 5.06002 30.3408 3.25972C30.3408 1.45943 31.7979 0 33.5954 0C35.3929 0 36.6393 1.45943 36.6393 3.25972C36.6393 5.06002 35.3929 6.51944 33.5954 6.51944Z" fill="#9EA9B7"/>
<path d="M42.649 13.0051C42.649 13.5612 42.1902 14.0117 41.6342 14.0063C37.2189 13.9637 41.1964 14.0021 37.6133 13.9675C36.5659 13.9574 35.559 13.5204 34.6433 13.0119C34.5329 12.9506 34.4215 12.8904 34.3099 12.8308C33.3846 12.3362 32.183 12.4989 31.6498 13.4025C30.9124 14.6523 30.2517 16.2315 30.9349 16.7886C31.6518 17.373 33.3614 18.9857 34.8112 20.2786C35.7182 21.0875 36.2703 22.2375 36.2703 23.4529V31.0176C36.2703 31.725 35.5507 32.2144 34.8604 32.0599C34.1683 31.905 33.4767 31.8241 32.6815 31.7218C32.1891 31.6585 31.8244 31.2373 31.8244 30.7407V24.4637C31.8244 23.7003 31.6878 22.9276 31.1906 22.3483C30.0749 21.0484 27.7595 19.3608 25.0531 18.7458C24.2371 18.5604 23.6761 17.4778 24.0676 16.7383C25.4042 14.2139 27.2555 10.0186 28.5148 7.62382C29.014 6.67437 30.1861 6.49672 31.1013 7.0563C32.3032 7.79116 33.8143 8.63983 35.0873 9.44474C36.2735 10.1947 37.6315 10.692 39.0349 10.692H41.649C42.2013 10.692 42.649 11.1428 42.649 11.6951C42.649 12.9762 42.649 11.4997 42.649 13.0051Z" fill="#9EA9B7"/>
</svg>
