<svg width="70" height="14" viewBox="0 0 70 14" fill="none" xmlns="http://www.w3.org/2000/svg">
<g clip-path="url(#clip0_1535_7400)">
<path d="M63.9805 0.863291C63.8946 0.668379 63.7045 0.542969 63.4947 0.542969C63.2851 0.542969 63.0949 0.668379 63.009 0.863291L61.5093 4.26786L57.8678 4.66904C57.6593 4.69201 57.4835 4.83752 57.4187 5.04071C57.3539 5.2439 57.4122 5.4669 57.5676 5.61037L60.2822 8.11565L59.5314 11.7682C59.4884 11.9773 59.5699 12.1926 59.7395 12.3182C59.9092 12.4438 60.1354 12.4562 60.3173 12.3499L63.4947 10.4937L66.6723 12.3499C66.8542 12.4562 67.0804 12.4438 67.25 12.3182C67.4197 12.1926 67.5012 11.9773 67.4582 11.7682L66.7074 8.11565L69.422 5.61037C69.5774 5.4669 69.6357 5.2439 69.5709 5.04071C69.5061 4.83752 69.3303 4.69201 69.1218 4.66904L65.4803 4.26786L63.9805 0.863291Z" fill="#E1E1E1"/>
</g>
<g clip-path="url(#clip1_1535_7400)">
<path d="M49.9229 0.863291C49.837 0.668379 49.6468 0.542969 49.4371 0.542969C49.2275 0.542969 49.0373 0.668379 48.9514 0.863291L47.4517 4.26786L43.8101 4.66904C43.6017 4.69201 43.4258 4.83752 43.361 5.04071C43.2962 5.2439 43.3545 5.4669 43.51 5.61037L46.2246 8.11565L45.4737 11.7682C45.4308 11.9773 45.5123 12.1926 45.6819 12.3182C45.8516 12.4438 46.0778 12.4562 46.2597 12.3499L49.4371 10.4937L52.6147 12.3499C52.7966 12.4562 53.0227 12.4438 53.1924 12.3182C53.362 12.1926 53.4436 11.9773 53.4005 11.7682L52.6497 8.11565L55.3643 5.61037C55.5198 5.4669 55.5781 5.2439 55.5133 5.04071C55.4485 4.83752 55.2727 4.69201 55.0642 4.66904L51.4227 4.26786L49.9229 0.863291Z" fill="#FFC738"/>
</g>
<g clip-path="url(#clip2_1535_7400)">
<path d="M35.8689 0.863291C35.7831 0.668379 35.5929 0.542969 35.3832 0.542969C35.1735 0.542969 34.9833 0.668379 34.8975 0.863291L33.3977 4.26786L29.7562 4.66904C29.5477 4.69201 29.3719 4.83752 29.3071 5.04071C29.2423 5.2439 29.3006 5.4669 29.456 5.61037L32.1706 8.11565L31.4198 11.7682C31.3768 11.9773 31.4583 12.1926 31.628 12.3182C31.7976 12.4438 32.0238 12.4562 32.2057 12.3499L35.3832 10.4937L38.5607 12.3499C38.7426 12.4562 38.9688 12.4438 39.1385 12.3182C39.3081 12.1926 39.3896 11.9773 39.3466 11.7682L38.5958 8.11565L41.3104 5.61037C41.4658 5.4669 41.5241 5.2439 41.4593 5.04071C41.3945 4.83752 41.2187 4.69201 41.0102 4.66904L37.3687 4.26786L35.8689 0.863291Z" fill="#FFC738"/>
</g>
<g clip-path="url(#clip3_1535_7400)">
<path d="M21.8125 0.863291C21.7267 0.668379 21.5365 0.542969 21.3268 0.542969C21.1171 0.542969 20.9269 0.668379 20.8411 0.863291L19.3413 4.26786L15.6998 4.66904C15.4913 4.69201 15.3155 4.83752 15.2507 5.04071C15.1859 5.2439 15.2442 5.4669 15.3996 5.61037L18.1142 8.11565L17.3634 11.7682C17.3204 11.9773 17.4019 12.1926 17.5716 12.3182C17.7412 12.4438 17.9674 12.4562 18.1493 12.3499L21.3268 10.4937L24.5043 12.3499C24.6862 12.4562 24.9124 12.4438 25.0821 12.3182C25.2517 12.1926 25.3332 11.9773 25.2902 11.7682L24.5394 8.11565L27.254 5.61037C27.4094 5.4669 27.4677 5.2439 27.4029 5.04071C27.3381 4.83752 27.1623 4.69201 26.9538 4.66904L23.3123 4.26786L21.8125 0.863291Z" fill="#FFC738"/>
</g>
<g clip-path="url(#clip4_1535_7400)">
<path d="M7.75785 0.863291C7.67198 0.668379 7.48181 0.542969 7.27209 0.542969C7.06243 0.542969 6.87226 0.668379 6.78638 0.863291L5.28662 4.26786L1.64511 4.66904C1.43662 4.69201 1.2608 4.83752 1.196 5.04071C1.1312 5.2439 1.1895 5.4669 1.34491 5.61037L4.05951 8.11565L3.30871 11.7682C3.26572 11.9773 3.34722 12.1926 3.51687 12.3182C3.68652 12.4438 3.91271 12.4562 4.09462 12.3499L7.27209 10.4937L10.4496 12.3499C10.6315 12.4562 10.8577 12.4438 11.0274 12.3182C11.197 12.1926 11.2785 11.9773 11.2355 11.7682L10.4847 8.11565L13.1993 5.61037C13.3547 5.4669 13.413 5.2439 13.3482 5.04071C13.2834 4.83752 13.1076 4.69201 12.8991 4.66904L9.25763 4.26786L7.75785 0.863291Z" fill="#FFC738"/>
</g>
<defs>
<clipPath id="clip0_1535_7400">
<rect width="12.7776" height="13.0184" fill="white" transform="translate(57.1064)"/>
</clipPath>
<clipPath id="clip1_1535_7400">
<rect width="12.7776" height="13.0184" fill="white" transform="translate(43.0488)"/>
</clipPath>
<clipPath id="clip2_1535_7400">
<rect width="12.7776" height="13.0184" fill="white" transform="translate(28.9949)"/>
</clipPath>
<clipPath id="clip3_1535_7400">
<rect width="12.7776" height="13.0184" fill="white" transform="translate(14.9385)"/>
</clipPath>
<clipPath id="clip4_1535_7400">
<rect width="12.7776" height="13.0184" fill="white" transform="translate(0.883789)"/>
</clipPath>
</defs>
</svg>
