<svg width="31" height="44" viewBox="0 0 31 44" fill="none" xmlns="http://www.w3.org/2000/svg">
<path d="M29.7236 7.60547L27.4036 41.8255" stroke="#C3D0E1" stroke-width="1.5" stroke-linecap="round"/>
<path fill-rule="evenodd" clip-rule="evenodd" d="M18.1353 9.24199C18.9561 9.59625 19.3463 9.99301 20.1864 11.3279C20.6863 12.1223 21.9568 14.1576 22.3553 14.8025C22.7188 15.3908 23.0564 15.7966 23.5158 16.1973C24.3317 16.9091 25.0321 17.0898 26.6339 17.0022C27.2296 16.9695 28.138 16.9435 28.6526 16.9444C29.5189 16.9459 29.6191 16.9599 30.0065 17.1347C30.7705 17.4795 31.0594 18.1792 30.7782 19.0039C30.6109 19.4945 30.2076 19.8782 29.6349 20.0917C29.2154 20.2481 29.1776 20.2498 26.0364 20.2466C23.6915 20.2443 22.7765 20.2205 22.5352 20.1555C22.0524 20.0256 21.8942 19.8618 19.5044 17.0834C19.4341 17.0016 19.3459 16.9607 19.2478 17.0053C19.1822 17.0351 19.1038 17.1059 19.0847 17.1754L18.9615 17.6243C18.8772 17.9315 18.4965 19.3067 18.1155 20.6802C17.325 23.5303 17.3311 23.4165 17.9308 24.0953C18.9715 25.2739 22.729 29.9653 22.9387 30.3481C23.3888 31.1699 23.3936 31.2461 23.2449 35.2539C23.0157 41.4364 22.9822 41.7749 22.5139 42.6524C22.0648 43.4939 21.3133 43.9458 20.3597 43.948C19.8919 43.949 19.729 43.9168 19.3726 43.753C18.6264 43.4101 18.0825 42.7226 17.895 41.8857C17.7602 41.2839 17.7947 40.2835 18.0016 38.7927C18.3779 36.0828 18.4357 33.6136 18.1415 32.8143C17.857 32.0414 17.5464 31.6844 15.575 29.8653C12.3894 26.9258 10.7736 24.9798 10.3896 23.6204C10.1032 22.6059 10.2976 21.294 11.0729 19.0097C11.2144 18.5929 11.6295 17.2597 11.9953 16.0472C12.8062 13.3588 13.5002 11.2954 13.7794 10.7423C14.1165 10.0745 14.5305 9.64944 15.0922 9.39446C15.7896 9.07775 16.2579 8.98454 17.0114 9.01251C17.5396 9.03207 17.7472 9.07444 18.1353 9.24199ZM9.76072 24.6763C9.81517 24.4272 10.0248 24.5003 10.1312 24.732C10.3054 25.1118 10.5958 25.6222 10.8692 26.011C11.2899 26.6095 12.2352 27.6999 13.2493 28.7568C13.6937 29.22 14.0573 29.6348 14.0573 29.6787C14.0573 29.9405 13.3684 32.3128 13.1832 32.6805C13.0606 32.9242 12.6406 33.5598 12.2499 34.0929C10.2291 36.8506 9.8201 37.4243 9.30494 38.2233C7.29619 41.3388 6.87552 41.8625 6.11789 42.191C5.28677 42.5513 4.3637 42.3955 3.6993 41.7827C3.21035 41.3316 3.00465 40.8106 3.04976 40.1374C3.07957 39.6937 3.13447 39.5388 3.50189 38.8629C3.99143 37.9624 4.86834 36.5955 6.08316 34.8395C7.60027 32.6464 7.80919 32.3184 8.03902 31.7692C8.30523 31.133 8.54403 30.2149 8.81756 28.7756C8.92736 28.1978 9.12777 27.2987 9.26289 26.7777C9.39801 26.2566 9.62202 25.3109 9.76072 24.6763Z" fill="#9EA9B7"/>
<circle cx="18.8838" cy="4" r="4" fill="#9EA9B7"/>
<path d="M11.6104 9.21681C11.2528 9.00983 10.465 8.76202 9.62072 8.5909C8.22744 8.30854 7.93014 8.33963 7.39358 8.82385C6.86341 9.3022 5.9201 10.7966 4.86246 12.8335C4.215 14.0805 4.19084 14.1048 3.59852 14.1048C3.10388 14.1048 2.93964 14.2837 2.28075 15.5404C1.0312 17.9238 0.89353 18.2896 0.884581 19.2517C0.879419 19.7972 0.901997 19.921 1.06837 20.2609C1.17327 20.4753 1.42184 20.8041 1.62469 20.9966C2.15582 21.5007 2.6327 21.7364 4.63021 22.4816L5.76598 22.9054L6.592 22.9093C7.3584 22.9129 7.44314 22.8999 7.76652 22.7286C8.20149 22.4982 8.58923 22.0735 8.79877 21.5979C8.88729 21.397 9.50521 19.4501 10.1719 17.2715C10.8385 15.0928 11.5041 12.9217 11.6509 12.4467C12.203 10.6605 12.2193 10.5913 12.1883 10.1618C12.1539 9.68418 12.0092 9.44756 11.6104 9.21681Z" fill="#C3D0E1"/>
</svg>
