<svg width="14" height="23" viewBox="0 0 14 23" fill="none" xmlns="http://www.w3.org/2000/svg">
<path d="M2.52581 22.9999C2.75215 23.0028 2.97673 22.9597 3.18595 22.8733C3.39516 22.7869 3.58466 22.6589 3.74297 22.4971L13.3612 13.0755C13.7864 12.6464 13.9868 12.2061 14 11.6655C14 11.125 13.7997 10.6733 13.3612 10.2575L3.74108 0.8226C3.49603 0.580276 3.1847 0.415961 2.84637 0.350392C2.50804 0.284823 2.15786 0.320937 1.84003 0.454175C1.5222 0.587413 1.25095 0.811808 1.06052 1.09904C0.870082 1.38628 0.768991 1.72348 0.770002 2.06811C0.772982 2.30799 0.823454 2.5449 0.918502 2.76517C1.01355 2.98543 1.15129 3.18468 1.32377 3.35142L9.85145 11.6674L1.32377 19.9683C1.15129 20.135 1.01355 20.3343 0.9185 20.5546C0.823452 20.7748 0.772981 21.0117 0.770001 21.2516C0.769496 21.482 0.814623 21.7102 0.902776 21.923C0.990928 22.1358 1.12036 22.3291 1.2836 22.4916C1.44685 22.6542 1.64066 22.7827 1.85387 22.87C2.06708 22.9572 2.29545 23.0014 2.52581 22.9999Z" fill="#0C73FE"/>
</svg>
