<svg width="34" height="33" viewBox="0 0 34 33" fill="none" xmlns="http://www.w3.org/2000/svg">
<path d="M29.9828 13.8071H28.8752V13.75H16.5002V19.25H24.2711C23.1374 22.4517 20.0911 24.75 16.5002 24.75C11.9442 24.75 8.25024 21.0561 8.25024 16.5C8.25024 11.9439 11.9442 8.25 16.5002 8.25C18.6033 8.25 20.5166 9.04337 21.9734 10.3393L25.8626 6.45012C23.4069 4.16144 20.122 2.75 16.5002 2.75C8.90681 2.75 2.75024 8.90656 2.75024 16.5C2.75024 24.0934 8.90681 30.25 16.5002 30.25C24.0937 30.25 30.2502 24.0934 30.2502 16.5C30.2502 15.5781 30.1554 14.6781 29.9828 13.8071Z" fill="#FFC107"/>
<path d="M4.33569 10.1001L8.85326 13.4131C10.0756 10.3868 13.036 8.25 16.5003 8.25C18.6034 8.25 20.5167 9.04338 21.9735 10.3393L25.8627 6.45013C23.4069 4.16144 20.1221 2.75 16.5003 2.75C11.2189 2.75 6.63882 5.73169 4.33569 10.1001Z" fill="#FF3D00"/>
<path d="M16.5005 30.25C20.0521 30.25 23.2792 28.8908 25.7191 26.6805L21.4635 23.0794C20.0366 24.1645 18.2931 24.7514 16.5005 24.75C12.9241 24.75 9.8874 22.4695 8.7434 19.2871L4.25952 22.7418C6.53515 27.1947 11.1565 30.25 16.5005 30.25Z" fill="#4CAF50"/>
<path d="M29.9828 13.8071H28.8752V13.75H16.5002V19.25H24.2711C23.7288 20.7738 22.7519 22.1053 21.4612 23.0801L21.4633 23.0787L25.7189 26.6798C25.4178 26.9534 30.2502 23.375 30.2502 16.5C30.2502 15.5781 30.1554 14.6781 29.9828 13.8071Z" fill="#1976D2"/>
</svg>
