<svg width="67" height="67" viewBox="0 0 67 67" fill="none" xmlns="http://www.w3.org/2000/svg">
<path d="M33.5003 0C15.1003 0 0.166992 14.9333 0.166992 33.3333C0.166992 51.7333 15.1003 66.6667 33.5003 66.6667C51.9003 66.6667 66.8337 51.7333 66.8337 33.3333C66.8337 14.9333 51.9003 0 33.5003 0ZM45.5337 21.1333C49.1003 21.1333 51.967 24 51.967 27.5667C51.967 31.1333 49.1003 34 45.5337 34C41.967 34 39.1003 31.1333 39.1003 27.5667C39.067 24 41.967 21.1333 45.5337 21.1333ZM25.5337 15.8667C29.867 15.8667 33.4003 19.4 33.4003 23.7333C33.4003 28.0667 29.867 31.6 25.5337 31.6C21.2003 31.6 17.667 28.0667 17.667 23.7333C17.667 19.3667 21.167 15.8667 25.5337 15.8667ZM25.5337 46.3V58.8C17.5337 56.3 11.2003 50.1333 8.40033 42.2667C11.9003 38.5333 20.6337 36.6333 25.5337 36.6333C27.3003 36.6333 29.5337 36.9 31.867 37.3667C26.4003 40.2667 25.5337 44.1 25.5337 46.3ZM33.5003 60C32.6003 60 31.7337 59.9667 30.867 59.8667V46.3C30.867 41.5667 40.667 39.2 45.5337 39.2C49.1003 39.2 55.267 40.5 58.3337 43.0333C54.4337 52.9333 44.8003 60 33.5003 60Z" fill="#0C73FE"/>
</svg>
