<svg width="67" height="67" viewBox="0 0 67 67" fill="none" xmlns="http://www.w3.org/2000/svg">
<path d="M33.5003 0C15.1003 0 0.166992 14.9333 0.166992 33.3333C0.166992 51.7333 15.1003 66.6667 33.5003 66.6667C51.9003 66.6667 66.8337 51.7333 66.8337 33.3333C66.8337 14.9333 51.9003 0 33.5003 0ZM33.5003 10C39.0337 10 43.5003 14.4667 43.5003 20C43.5003 25.5333 39.0337 30 33.5003 30C27.967 30 23.5003 25.5333 23.5003 20C23.5003 14.4667 27.967 10 33.5003 10ZM33.5003 57.3333C25.167 57.3333 17.8003 53.0667 13.5003 46.6C13.6003 39.9667 26.8337 36.3333 33.5003 36.3333C40.1337 36.3333 53.4003 39.9667 53.5003 46.6C49.2003 53.0667 41.8337 57.3333 33.5003 57.3333Z" fill="#0C73FE"/>
</svg>
