<svg width="67" height="67" viewBox="0 0 67 67" fill="none" xmlns="http://www.w3.org/2000/svg">
<circle cx="33.5" cy="33.5" r="33.5" fill="#0C73FE"/>
<g clip-path="url(#clip0_73_851)">
<path d="M33.3848 10C22.6152 10 13.8848 18.6662 13.8848 29.3534C13.8848 39.0835 27.5619 51.1116 32.2756 57.3386C32.7733 57.9962 33.9392 57.9604 34.4179 57.289C38.8678 51.0479 52.8848 39.0577 52.8848 29.3534C52.8848 18.6662 44.1544 10 33.3848 10ZM33.3848 38.2362C28.4408 38.2362 24.4346 34.2588 24.4346 29.3534C24.4346 24.4465 28.4408 20.4705 33.3848 20.4705C38.3274 20.4705 42.3349 24.4465 42.3349 29.3534C42.3349 34.2588 38.3274 38.2362 33.3848 38.2362Z" fill="white"/>
</g>
<defs>
<clipPath id="clip0_73_851">
<rect width="51" height="51" fill="white" transform="translate(7 7)"/>
</clipPath>
</defs>
</svg>
