<svg width="24" height="22" viewBox="0 0 24 22" fill="none" xmlns="http://www.w3.org/2000/svg">
<path fill-rule="evenodd" clip-rule="evenodd" d="M6.9375 0C3.04439 0 0 3.44643 0 7.52388C0 9.64468 0.333216 11.3911 1.5754 13.2286C2.7606 14.982 4.73148 16.7513 7.78961 19.0856L10.2926 20.8182C11.3198 21.5292 12.6802 21.5292 13.7074 20.8182L16.2101 19.086C19.2684 16.7515 21.2394 14.982 22.4246 13.2286C23.6668 11.3911 24 9.64468 24 7.52388C24 3.44645 20.9556 0 17.0626 0C15.4468 0 14.0106 0.554569 12.7598 1.57628C12.3219 1.93402 11.6781 1.93402 11.2402 1.57628C9.98939 0.554569 8.55321 0 6.9375 0Z" fill="white"/>
</svg>
