<svg width="36" height="36" viewBox="0 0 36 36" fill="none" xmlns="http://www.w3.org/2000/svg">
<path d="M6.68856 31.5984C4.81508 30.6444 5.60169 28.0586 7.04051 26.5256C8.49714 24.9737 10.0398 23.8327 12.2451 22.4407C13.3944 21.7152 14.6927 21.2401 16.0452 21.106C17.4182 20.9699 18.4501 20.9649 19.7979 21.0909C21.2527 21.227 22.6361 21.7702 23.8706 22.5519C26.1597 24.0014 28.0101 25.1932 29.4967 26.8958C30.6251 28.1882 31.1988 30.2318 29.8337 31.271C29.2374 31.7251 28.4579 32 27.605 32H8.3951C7.77299 32 7.18996 31.8537 6.68856 31.5984Z" fill="white"/>
<path d="M25 11C25 14.866 21.866 18 17.9999 18C14.134 18 11 14.866 11 11C11 7.13401 14.134 4 17.9999 4C21.866 4 25 7.13401 25 11Z" fill="white"/>
</svg>
