<svg width="54" height="37" viewBox="0 0 54 37" fill="none" xmlns="http://www.w3.org/2000/svg">
<path fill-rule="evenodd" clip-rule="evenodd" d="M27.4899 0.44881C27.0778 0.329924 26.6592 0.240584 26.2345 0.180573C25.5615 0.0855079 24.3538 -0.0307116 22.6212 0.0074456C20.1074 0.0627801 17.612 0.61442 15.3269 1.67268C11.5037 3.44321 9.09352 5.67927 7.01856 9.21084C5.92712 11.0685 5.46141 12.4515 5.13943 14.5862C4.72151 17.3573 4.78672 20.9193 5.73424 23.5541C6.24655 24.9789 6.74841 26.3365 7.12923 27.3567C7.45065 28.2173 6.82078 29.1386 5.90871 29.1386C5.76237 29.1386 5.57429 29.1386 5.31697 29.1391H2.58817C1.87675 29.1391 1.30005 29.7204 1.30005 30.4381C1.30005 31.2755 1.97373 31.9543 2.80407 31.953L9.18183 31.9443L9.93764 31.95C10.366 31.9535 10.7789 32.1125 11.1002 32.3984L11.1848 32.4736C11.4991 32.7529 11.5727 33.2184 11.3601 33.5825C11.1497 33.943 10.7658 34.1646 10.351 34.1646H8.93201L1.30451 34.1651C0.584024 34.1651 0 34.7543 0 35.4811C0 36.3225 0.677931 37.0035 1.51204 37L20.6582 36.9248C27.9211 36.9248 29.5448 37.3392 33.3878 35.4811C36.8442 33.8097 40.0778 30.7296 41.6968 27.5669C42.3096 26.3702 42.5938 26.1149 44.3714 25.1651C50.3516 21.9705 54 15.5237 54 8.15197V7.50212C54 6.6864 53.3448 6.02518 52.5357 6.02518H51.897C51.4346 6.02518 51.0541 6.39084 51.0311 6.85638L50.9332 8.86948C50.7048 13.5522 49.4451 16.6862 46.6296 19.5775C45.785 20.445 44.8685 21.2839 44.4356 21.5938C44.3398 21.6624 44.15 21.7043 44.0442 21.6519C43.7457 21.5042 43.8484 21.0505 43.87 20.7159C43.9463 19.5396 44.0261 16.6692 44.0412 13.4384V6.95192C44.0412 6.46912 43.6534 6.07776 43.1745 6.07776H42.6047C41.8073 6.03777 41.1425 6.68482 41.1538 7.48962L41.2136 11.837C41.2817 16.7428 41.1235 19.921 40.7014 21.964C40.5944 22.4832 40.4293 23.0068 40.0639 23.3884C39.4486 24.0318 38.4055 24.0121 37.5206 24.0545C33.7275 24.2346 23.7003 24.1459 21.4208 23.4889C19.9041 23.0519 18.8306 22.0155 18.2137 20.7919C17.5657 19.5065 17.5589 17.3183 18.1993 16.0584C20.2447 12.0346 25.7998 11.4558 27.9211 15.4028C28.7635 18.2209 27.0544 18.2438 24.8876 18.4301C23.8324 18.4476 23.0119 19.3618 23.0995 20.4226L23.115 20.6107C23.1372 20.8787 23.3592 21.085 23.6257 21.085H24.0209H24.8876H26.3584C27.3772 21.085 28.3735 20.7806 29.2211 20.2107C29.9353 19.4905 30.5472 18.6371 30.7305 17.6356C30.8189 17.153 30.8423 16.7054 30.8085 16.2521C30.7335 15.234 30.3205 14.2642 29.7095 13.4502C27.4843 10.4859 23.6119 9.1337 20.1176 10.4567C18.8092 10.9521 17.3421 12.1078 16.3279 13.374C15.7215 14.131 15.3095 15.0348 15.0865 15.9817C15.0179 16.2732 14.9632 16.6085 14.9218 17.0707C14.8424 17.9575 14.8958 18.8533 15.0378 19.7321C15.2273 20.904 15.4036 21.4032 15.7873 22.1453C16.5883 23.6948 17.5333 24.8627 19.0374 25.6743L19.9412 26.0647C20.3487 26.2408 20.7736 26.3728 21.2087 26.458C22.2148 26.6552 23.2401 26.7609 24.2649 26.7727C32.1835 26.8632 35.3105 26.84 36.7315 26.8405C37.7052 26.8409 38.1789 27.6456 37.5726 28.414C37.1393 28.9638 36.4784 29.282 35.782 29.2759L24.8976 29.1793C23.3133 29.1653 21.7237 28.9481 20.204 28.4966C15.827 27.1954 12.7256 23.0112 12.7256 18.4072C12.7256 15.4913 13.7997 12.9598 15.8996 10.926C18.0076 8.88439 20.3244 7.91481 23.0942 7.91481C26.5543 7.91481 29.7026 9.63376 31.745 12.6382C32.9176 14.3625 33.2591 15.6349 33.4298 18.9129L33.5126 20.4979C33.555 21.3214 34.2077 21.9797 35.0245 22.0225C35.8054 22.0641 36.4611 21.4364 36.4611 20.6476V19.592C36.4611 16.3651 36.156 14.7943 35.0869 12.5112C33.4645 9.0462 30.0961 6.26029 26.3294 5.26719C21.1327 3.8976 15.0744 6.24359 11.9836 10.8223C10.0403 13.7013 9.2308 18.2191 10.068 21.5151C10.6307 23.7302 11.6946 25.7237 13.1302 27.3619C16.6632 31.394 22.5457 31.5719 27.8808 31.609C29.4616 31.62 31.0317 31.6401 32.346 31.6803C32.9544 31.6991 33.1932 32.4574 32.6853 32.7953C32.5601 32.8783 32.4474 32.9487 32.343 33.0099C31.1071 33.7315 29.6272 33.9553 28.1993 33.9553C24.4292 33.9553 27.2702 33.9553 25.129 33.9553C22.8702 33.9553 20.9172 33.69 18.743 33.0724C16.9849 32.5728 14.9374 31.8529 13.5337 30.6741C11.7678 29.1911 10.2661 27.1967 9.37645 25.3133C7.40324 21.1348 7.35774 17.5818 8.35111 13.6585C8.54551 12.8907 8.89686 11.9882 9.28042 11.2967C10.8377 8.48918 12.8747 6.04096 15.7475 4.64313C18.2841 3.40885 20.6859 2.97772 22.7764 2.92212C25.8479 2.84043 29.1414 3.49732 31.6058 5.34792C31.6851 5.40732 31.7666 5.47 31.8511 5.53626C35.2802 8.22636 33.3496 6.69308 34.8945 7.91708C35.3916 8.31098 36.0971 8.29713 36.5772 7.88216C36.9833 7.5311 37.1003 6.94633 36.8611 6.46388L36.8117 6.36431C36.6834 6.10552 36.5144 5.86827 36.3107 5.66424C35.5563 4.90769 35.5428 4.93567 33.8012 3.56948C31.7293 1.94433 28.9399 0.866966 27.4899 0.44881Z" fill="white"/>
</svg>
