<svg width="44" height="60" viewBox="0 0 44 60" fill="none" xmlns="http://www.w3.org/2000/svg">
<path d="M21 2C21 0.895432 21.8954 0 23 0H25V60H23C21.8954 60 21 59.1046 21 58V2Z" fill="#B7B7B7"/>
<circle cx="22" cy="30" r="20" stroke="#B7B7B7" stroke-width="4"/>
<circle cx="22" cy="30" r="18" fill="white"/>
<path d="M28.3136 20.7207C26.57 18.9071 24.2852 18 21.9997 18C19.7149 18 17.4294 18.9071 15.6857 20.7207C12.9067 23.6122 12.183 28.0235 13.9919 31.4079C15.6023 34.4199 19.5333 39.735 21.2153 41.9672C21.6103 42.4914 22.3891 42.4914 22.7842 41.9672C24.4663 39.7351 28.3978 34.4199 30.0081 31.4079C31.817 28.0235 31.0933 23.6122 28.3136 20.7207ZM21.9997 32.9338C19.0051 32.9338 16.5766 30.4069 16.5766 27.2918C16.5766 24.1737 19.0051 21.6469 21.9997 21.6469C24.995 21.6469 27.4235 24.1737 27.4235 27.2918C27.4235 30.4069 24.995 32.9338 21.9997 32.9338Z" fill="#FF6F32"/>
</svg>
