<svg width="47" height="47" viewBox="0 0 47 47" fill="none" xmlns="http://www.w3.org/2000/svg">
<g clip-path="url(#clip0_1975_9364)">
<path d="M14.6872 39.1666H32.5413C35.4675 39.1666 38.2109 40.5891 39.897 42.9806L41.2658 44.9221C41.8282 45.7198 43.0831 45.3219 43.0831 44.3459V18.4164C43.0831 16.2623 41.3206 14.4998 39.1664 14.4998H14.6873C12.5331 14.4998 10.7706 16.2623 10.7706 18.4164L10.7705 35.2499C10.7705 37.4041 12.533 39.1666 14.6872 39.1666Z" fill="#FF7D47"/>
<path d="M26.3333 35.6667C27.0697 35.6667 27.6667 35.0697 27.6667 34.3333C27.6667 33.597 27.0697 33 26.3333 33C25.597 33 25 33.597 25 34.3333C25 35.0697 25.597 35.6667 26.3333 35.6667Z" fill="#F0F0F0"/>
<path d="M27.6667 30.7778C27.6667 31.1314 27.5262 31.4705 27.2761 31.7206C27.0261 31.9706 26.687 32.1111 26.3333 32.1111C25.9797 32.1111 25.6406 31.9706 25.3905 31.7206C25.1405 31.4705 25 31.1314 25 30.7778V22.3333C25 21.9797 25.1405 21.6406 25.3905 21.3905C25.6406 21.1405 25.9797 21 26.3333 21C26.687 21 27.0261 21.1405 27.2761 21.3905C27.5262 21.6406 27.6667 21.9797 27.6667 22.3333V30.7778Z" fill="#F0F0F0"/>
<path d="M32.3128 24.4794H13.9932C11.3627 24.4794 8.90034 25.7725 7.40712 27.9381L5.74026 30.3555C5.18319 31.1634 3.91699 30.7692 3.91699 29.7879V4.41642C3.91699 2.26226 5.67949 0.499756 7.83366 0.499756H32.3128C34.467 0.499756 36.2295 2.26226 36.2295 4.41642V20.5627C36.2295 22.7169 34.467 24.4794 32.3128 24.4794Z" fill="#0C73FE"/>
<path d="M19 16.1111C18.6464 16.1111 18.3072 15.9706 18.0572 15.7206C17.8071 15.4705 17.6667 15.1314 17.6667 14.7778V13C17.6667 12.6464 17.8071 12.3072 18.0572 12.0572C18.3072 11.8071 18.6464 11.6667 19 11.6667C19.268 11.664 21.6667 11.2222 21.6667 9.44444C21.6667 8.55556 20.7778 7.66667 19.4444 7.66667C18.3596 7.66667 17.6667 8.55556 17.6667 9C17.6667 9.35362 17.5262 9.69276 17.2761 9.94281C17.0261 10.1929 16.687 10.3333 16.3333 10.3333C15.9797 10.3333 15.6406 10.1929 15.3905 9.94281C15.1405 9.69276 15 9.35362 15 9C15 6.832 17.0356 5 19.4444 5C23 5 24.3333 7.65867 24.3333 9.88889C24.3333 11.7311 23.3213 13.1391 21.4831 13.8533C21.0831 14.0093 20.6876 14.1142 20.3333 14.1853V14.7778C20.3333 15.1314 20.1929 15.4705 19.9428 15.7206C19.6928 15.9706 19.3536 16.1111 19 16.1111Z" fill="white"/>
<path d="M19.0003 19.6667C19.7367 19.6667 20.3337 19.0697 20.3337 18.3333C20.3337 17.597 19.7367 17 19.0003 17C18.2639 17 17.667 17.597 17.667 18.3333C17.667 19.0697 18.2639 19.6667 19.0003 19.6667Z" fill="white"/>
</g>
<defs>
<clipPath id="clip0_1975_9364">
<rect width="47" height="47" fill="white"/>
</clipPath>
</defs>
</svg>
