<svg width="24" height="24" viewBox="0 0 24 24" fill="none" xmlns="http://www.w3.org/2000/svg">
<path d="M21.2731 10.6248C19.7899 7.32711 16.1971 5 12.0001 5C7.80301 5 4.21106 7.32711 2.7269 10.6248H2.00821V13.6473C2.0027 13.7643 2 13.8813 2 13.9999C2 14.1186 2.0027 14.2356 2.00821 14.3526C2.21417 19.16 6.60815 23 12.0001 23C17.391 23 21.7858 19.1601 21.9927 14.3526H22V10.6248H21.2731Z" fill="#E0AC40"/>
<path d="M12 21C17.5228 21 22 16.5228 22 11C22 5.47715 17.5228 1 12 1C6.47715 1 2 5.47715 2 11C2 16.5228 6.47715 21 12 21Z" fill="#FFCE54"/>
<path d="M14 5.5H14.5C15.3284 5.5 16 6.33947 16 7.375C16 7.72018 15.7761 8 15.5 8C15.2239 8 15 7.72018 15 7.375C15 7.02982 14.7761 6.75 14.5 6.75H9.5C9.22386 6.75 9 7.02982 9 7.375V8.79088C9 9.10191 9.18296 9.36561 9.42929 9.4096L14.7121 10.353C15.4511 10.4849 16 11.276 16 12.2091V13.625C16 14.6605 15.3284 15.5 14.5 15.5H14V17.375C14 17.7202 13.7761 18 13.5 18C13.2239 18 13 17.7202 13 17.375V15.5H11V17.375C11 17.7202 10.7761 18 10.5 18C10.2239 18 10 17.7202 10 17.375V15.5H9.5C8.67157 15.5 8 14.6605 8 13.625C8 13.2798 8.22386 13 8.5 13C8.77614 13 9 13.2798 9 13.625C9 13.9702 9.22386 14.25 9.5 14.25H14.5C14.7761 14.25 15 13.9702 15 13.625V12.2091C15 11.8981 14.817 11.6344 14.5707 11.5904L9.28787 10.647C8.54889 10.5151 8 9.72398 8 8.79088V7.375C8 6.33947 8.67157 5.5 9.5 5.5H10V3.625C10 3.27982 10.2239 3 10.5 3C10.7761 3 11 3.27982 11 3.625V5.5H13V3.625C13 3.27982 13.2239 3 13.5 3C13.7761 3 14 3.27982 14 3.625V5.5Z" fill="#614814"/>
</svg>
