<svg width="45" height="37" viewBox="0 0 45 37" fill="none" xmlns="http://www.w3.org/2000/svg">
<rect x="8.05273" width="36.9474" height="36.9474" rx="18.4737" fill="#4F4F4F"/>
<path d="M26.686 2.4642C17.8428 2.4642 10.6738 9.62609 10.6738 18.4606C10.6738 25.4848 15.2065 31.4531 21.5095 33.6025L21.6226 33.6356C22.4235 33.786 22.7171 33.2921 22.7171 32.8665C22.7171 32.4867 22.7043 31.4797 22.6968 30.1474C18.2432 31.1128 17.3036 28.0012 17.3036 28.0012C16.996 27.0145 16.3661 26.2038 15.5385 25.6715L15.5215 25.6619C14.0714 24.6699 15.6336 24.6901 15.6336 24.6901C16.6875 24.8384 17.5705 25.456 18.0777 26.3222L18.0862 26.3382C18.6778 27.3996 19.7946 28.1057 21.077 28.1057C21.692 28.1057 22.2686 27.9436 22.7662 27.6588L22.7491 27.6673C22.826 26.8236 23.1987 26.079 23.7624 25.5286L23.7635 25.5275C20.2079 25.1275 16.4696 23.7514 16.4696 17.6232C16.4696 17.5944 16.4686 17.5613 16.4686 17.5283C16.4686 15.9058 17.0953 14.4295 18.1204 13.3276L18.1172 13.3318C17.9004 12.7537 17.7744 12.0859 17.7744 11.3894C17.7744 10.5605 17.9517 9.77222 18.2709 9.06179L18.256 9.09806C18.256 9.09806 19.5971 8.66925 22.6594 10.7376C23.8596 10.3952 25.2381 10.1978 26.6625 10.1978C28.0869 10.1978 29.4653 10.3952 30.7723 10.7632L30.6655 10.7376C33.7076 8.66925 35.0487 9.09806 35.0487 9.09806C35.353 9.78289 35.5302 10.5808 35.5302 11.4203C35.5302 12.1051 35.4128 12.7622 35.196 13.3724L35.2088 13.3318C36.2264 14.4327 36.851 15.909 36.851 17.5315C36.851 17.5645 36.851 17.5965 36.85 17.6285V17.6232C36.85 23.7685 33.1075 25.1211 29.5444 25.5147C30.2192 26.2049 30.6356 27.1489 30.6356 28.1911C30.6356 28.2903 30.6313 28.3895 30.6239 28.4876L30.6249 28.4748C30.6249 30.6157 30.6046 32.3352 30.6046 32.8547C30.6046 33.275 30.8844 33.7742 31.7055 33.6142C38.142 31.4499 42.6949 25.4763 42.6949 18.4392C42.6949 9.61542 35.5345 2.46313 26.7031 2.46313C26.6966 2.46313 26.6892 2.46313 26.6828 2.46313H26.6838L26.686 2.4642Z" fill="white"/>
<path d="M10.1846 9.94727L10.1846 26.9999L8.59918 24.5706C7.69466 23.1846 6.5155 21.9989 5.13457 21.0867L3.26896 20.0817C1.86699 19.3264 1.86699 17.3154 3.26896 16.5601L5.13457 15.5551C6.51775 14.6414 7.71602 13.4748 8.66646 12.1167L10.1846 9.94727Z" fill="#4F4F4F"/>
</svg>
