<svg width="20" height="20" viewBox="0 0 20 20" fill="none" xmlns="http://www.w3.org/2000/svg">
<path d="M6.6672 10C6.6672 8.15912 8.15912 6.6664 10 6.6664C11.8409 6.6664 13.3336 8.15912 13.3336 10C13.3336 11.8409 11.8409 13.3336 10 13.3336C8.15912 13.3336 6.6672 11.8409 6.6672 10ZM4.86512 10C4.86512 12.836 7.164 15.1349 10 15.1349C12.836 15.1349 15.1349 12.836 15.1349 10C15.1349 7.164 12.836 4.86512 10 4.86512C7.164 4.86512 4.86512 7.164 4.86512 10ZM14.1382 4.66152C14.1381 4.89886 14.2084 5.13089 14.3401 5.32829C14.4719 5.52568 14.6593 5.67956 14.8785 5.77047C15.0977 5.86138 15.339 5.88524 15.5718 5.83904C15.8046 5.79283 16.0185 5.67862 16.1863 5.51087C16.3542 5.34311 16.4686 5.12934 16.515 4.89658C16.5614 4.66382 16.5377 4.42253 16.447 4.20322C16.3563 3.98392 16.2025 3.79644 16.0052 3.6645C15.808 3.53257 15.576 3.4621 15.3386 3.462H15.3382C15.02 3.46215 14.715 3.58856 14.49 3.81347C14.265 4.03837 14.1384 4.34339 14.1382 4.66152ZM5.96 18.1398C4.98504 18.0954 4.45512 17.933 4.10296 17.7958C3.63608 17.614 3.30296 17.3975 2.95272 17.0478C2.60248 16.698 2.38568 16.3652 2.20472 15.8983C2.06744 15.5463 1.90504 15.0162 1.86072 14.0413C1.81224 12.9872 1.80256 12.6706 1.80256 10.0001C1.80256 7.3296 1.81304 7.01384 1.86072 5.95888C1.90512 4.98392 2.06872 4.45488 2.20472 4.10184C2.38648 3.63496 2.60296 3.30184 2.95272 2.9516C3.30248 2.60136 3.63528 2.38456 4.10296 2.2036C4.45496 2.06632 4.98504 1.90392 5.96 1.8596C7.01408 1.81112 7.33072 1.80144 10 1.80144C12.6693 1.80144 12.9862 1.81192 14.0412 1.8596C15.0162 1.904 15.5452 2.0676 15.8982 2.2036C16.3651 2.38456 16.6982 2.60184 17.0485 2.9516C17.3987 3.30136 17.6147 3.63496 17.7965 4.10184C17.9338 4.45384 18.0962 4.98392 18.1405 5.95888C18.189 7.01384 18.1986 7.3296 18.1986 10.0001C18.1986 12.6706 18.189 12.9863 18.1405 14.0413C18.0961 15.0162 17.9329 15.5462 17.7965 15.8983C17.6147 16.3652 17.3982 16.6983 17.0485 17.0478C16.6987 17.3972 16.3651 17.614 15.8982 17.7958C15.5462 17.933 15.0162 18.0954 14.0412 18.1398C12.9871 18.1882 12.6705 18.1979 10 18.1979C7.32952 18.1979 7.01376 18.1882 5.96 18.1398ZM5.8772 0.06056C4.81264 0.10904 4.0852 0.27784 3.44992 0.52504C2.792 0.78032 2.23504 1.1228 1.67848 1.67848C1.12192 2.23416 0.78032 2.792 0.52504 3.44992C0.27784 4.0856 0.10904 4.81264 0.06056 5.8772C0.01128 6.94344 0 7.28432 0 10C0 12.7157 0.01128 13.0566 0.06056 14.1228C0.10904 15.1874 0.27784 15.9144 0.52504 16.5501C0.78032 17.2076 1.122 17.7661 1.67848 18.3215C2.23496 18.877 2.792 19.219 3.44992 19.475C4.0864 19.7222 4.81264 19.891 5.8772 19.9394C6.944 19.9879 7.28432 20 10 20C12.7157 20 13.0566 19.9887 14.1228 19.9394C15.1874 19.891 15.9144 19.7222 16.5501 19.475C17.2076 19.219 17.765 18.8772 18.3215 18.3215C18.8781 17.7658 19.219 17.2076 19.475 16.5501C19.7222 15.9144 19.8918 15.1874 19.9394 14.1228C19.9879 13.0558 19.9992 12.7157 19.9992 10C19.9992 7.28432 19.9879 6.94344 19.9394 5.8772C19.891 4.81256 19.7222 4.0852 19.475 3.44992C19.219 2.7924 18.8772 2.23504 18.3215 1.67848C17.7658 1.12192 17.2076 0.78032 16.5509 0.52504C15.9144 0.27784 15.1874 0.10824 14.1236 0.06056C13.0574 0.01208 12.7165 0 10.0008 0C7.28512 0 6.944 0.01128 5.8772 0.06056Z" fill="#b9b9b9"/>
<defs>
<radialGradient id="paint0_radial_2105_6405" cx="0" cy="0" r="1" gradientUnits="userSpaceOnUse" gradientTransform="translate(12.1291 20.9905) scale(20.577 20.577)">
<stop offset="0.64" stop-color="#404040" stop-opacity="0"/>
<stop offset="1" stop-color="#808080"/>
</radialGradient>
</defs>
</svg>
