<svg width="23" height="17" viewBox="0 0 23 17" fill="none" xmlns="http://www.w3.org/2000/svg">
<path d="M2.55721 1.93896C8.51559 1.26172 12.4839 0.828238 14.4621 0.638812C20.1162 0.0996597 21.2731 0.0633172 21.9761 0.279563C22.1306 0.327441 22.4647 0.479287 22.6472 0.740458C22.7984 0.959828 22.8038 1.19126 22.7969 1.35028C22.7872 1.5082 22.7441 1.86124 22.6594 2.12009C21.7111 5.08318 18.8754 12.0985 17.5098 15.3179C16.9341 16.6807 16.3135 16.9976 15.8064 16.8822C14.7031 16.6314 14.0689 15.5185 13.1791 14.4639C11.7879 12.8134 11.0161 11.8171 9.66534 10.2091C8.10478 8.35074 9.44724 8.05009 10.7404 7.2639C11.0782 7.05789 16.8219 4.1212 17.0013 3.74294C17.0241 3.69574 17.0774 3.5094 16.9889 3.37303C16.9035 3.23731 16.7362 3.21937 16.614 3.20846C16.44 3.19284 13.4349 4.13246 7.59026 6.02415C6.73347 6.31085 6.00585 6.34905 5.40458 6.1375C4.74548 5.90571 3.54948 5.11177 2.66978 4.48001C1.59396 3.70603 0.712825 3.19446 0.940539 2.55317C1.05741 2.21879 1.59729 2.01427 2.55721 1.93896Z" fill="#24a2df"/>
</svg>
