<svg width="24" height="14" viewBox="0 0 24 14" fill="none" xmlns="http://www.w3.org/2000/svg">
<path d="M23.4497 0.948076C23.6174 0.401109 23.4497 0 22.6568 0H20.0303C19.362 0 19.0566 0.347001 18.8889 0.728113C18.8889 0.728113 17.5535 3.9264 15.6611 6.00017C15.0503 6.6036 14.7712 6.79415 14.4382 6.79415C14.2718 6.79415 14.0298 6.6036 14.0298 6.05663V0.948076C14.0298 0.291716 13.837 0 13.2801 0H9.15281C8.73601 0 8.48449 0.303479 8.48449 0.592842C8.48449 1.21391 9.43067 1.35742 9.52769 3.10771V6.90472C9.52769 7.73635 9.37558 7.88809 9.04022 7.88809C8.15033 7.88809 5.9849 4.67804 4.69977 1.00336C4.44945 0.289363 4.19673 0.00117675 3.52602 0.00117675H0.900669C0.149712 0.00117675 0 0.348177 0 0.72929C0 1.41388 0.889889 4.80155 4.14523 9.28197C6.31546 12.3415 9.37079 14 12.1542 14C13.8226 14 14.0286 13.6318 14.0286 12.9966V10.6841C14.0286 9.94774 14.1879 9.79953 14.7161 9.79953C15.1042 9.79953 15.7725 9.99244 17.3307 11.4663C19.1105 13.2142 19.4051 13.9988 20.4052 13.9988H23.0305C23.7803 13.9988 24.1552 13.6306 23.9396 12.9037C23.7036 12.1803 22.8533 11.1275 21.725 9.88187C21.1118 9.1714 20.1956 8.40682 19.9165 8.02453C19.5273 7.53168 19.6398 7.31407 19.9165 6.87649C19.9177 6.87767 23.1168 2.45253 23.4497 0.948076Z" fill="#24a2df"/>
</svg>
