<svg width="47" height="47" viewBox="0 0 47 47" fill="none" xmlns="http://www.w3.org/2000/svg">
<path d="M33.102 0.583344H13.8978C5.55617 0.583344 0.583252 5.55626 0.583252 13.8979V33.0792C0.583252 41.4438 5.55617 46.4167 13.8978 46.4167H33.0791C41.4207 46.4167 46.3937 41.4438 46.3937 33.1021V13.8979C46.4166 5.55626 41.4437 0.583344 33.102 0.583344ZM31.1999 28.7708C31.8645 29.4354 31.8645 30.5354 31.1999 31.2C30.8562 31.5438 30.4207 31.7042 29.9853 31.7042C29.5499 31.7042 29.1145 31.5438 28.7708 31.2L23.4999 25.9292L18.2291 31.2C17.8853 31.5438 17.4499 31.7042 17.0145 31.7042C16.5791 31.7042 16.1437 31.5438 15.7999 31.2C15.1353 30.5354 15.1353 29.4354 15.7999 28.7708L21.0707 23.5L15.7999 18.2292C15.1353 17.5646 15.1353 16.4646 15.7999 15.8C16.4645 15.1354 17.5645 15.1354 18.2291 15.8L23.4999 21.0708L28.7708 15.8C29.4353 15.1354 30.5353 15.1354 31.1999 15.8C31.8645 16.4646 31.8645 17.5646 31.1999 18.2292L25.9291 23.5L31.1999 28.7708Z" fill="#888888"/>
</svg>
