<svg width="17" height="17" viewBox="0 0 17 17" fill="none" xmlns="http://www.w3.org/2000/svg">
<path d="M15.8984 13.4693C16.563 14.1339 16.563 15.2339 15.8984 15.8984C15.5547 16.2422 15.1193 16.4026 14.6839 16.4026C14.2484 16.4026 13.813 16.2422 13.4693 15.8984L8.19843 10.6276L2.9276 15.8984C2.58385 16.2422 2.14844 16.4026 1.71302 16.4026C1.2776 16.4026 0.842187 16.2422 0.498437 15.8984C-0.166146 15.2339 -0.166146 14.1339 0.498437 13.4693L5.76927 8.19844L0.498437 2.9276C-0.166146 2.26302 -0.166146 1.16302 0.498437 0.498437C1.16302 -0.166146 2.26302 -0.166146 2.9276 0.498437L8.19843 5.76927L13.4693 0.498437C14.1339 -0.166146 15.2339 -0.166146 15.8984 0.498437C16.563 1.16302 16.563 2.26302 15.8984 2.9276L10.6276 8.19844L15.8984 13.4693Z" fill="#9EA9B7"/>
</svg>
