<svg width="32" height="32" viewBox="0 0 32 32" fill="none" xmlns="http://www.w3.org/2000/svg">
<rect width="32" height="32" rx="3" fill="white"/>
<path fill-rule="evenodd" clip-rule="evenodd" d="M9.66959 15.9078C9.66959 15.1863 9.78942 14.4946 10.0033 13.8459L6.25979 10.9872C5.5302 12.4685 5.11914 14.1377 5.11914 15.9078C5.11914 17.6765 5.52969 19.3446 6.25827 20.8249L9.99976 17.9607C9.78791 17.315 9.66959 16.6258 9.66959 15.9078Z" fill="#FBBC05"/>
<path fill-rule="evenodd" clip-rule="evenodd" d="M16.2425 9.34405C17.8098 9.34405 19.2255 9.89943 20.3379 10.8082L23.5737 7.57694C21.6019 5.86032 19.0738 4.80005 16.2425 4.80005C11.8467 4.80005 8.06882 7.31389 6.25977 10.987L10.0033 13.8456C10.8658 11.2273 13.3246 9.34405 16.2425 9.34405Z" fill="#EB4335"/>
<path fill-rule="evenodd" clip-rule="evenodd" d="M16.2424 22.4714C13.3246 22.4714 10.8658 20.5882 10.0033 17.9698L6.25977 20.828C8.06882 24.5016 11.8467 27.0154 16.2424 27.0154C18.9555 27.0154 21.5458 26.0521 23.4898 24.2471L19.9364 21.5C18.9338 22.1316 17.6713 22.4714 16.2424 22.4714Z" fill="#34A853"/>
<path fill-rule="evenodd" clip-rule="evenodd" d="M26.8609 15.9086C26.8609 15.2522 26.7598 14.5454 26.6081 13.889H16.2432V18.1806H22.2093C21.911 19.6438 21.099 20.7687 19.9371 21.5007L23.4905 24.2478C25.5327 22.3525 26.8609 19.5292 26.8609 15.9086Z" fill="#4285F4"/>
</svg>
