<svg width="79" height="54" viewBox="0 0 79 54" fill="none" xmlns="http://www.w3.org/2000/svg">
<path fill-rule="evenodd" clip-rule="evenodd" d="M40.1939 1.16464C39.6032 0.994794 39.0033 0.867156 38.3946 0.781419C37.4301 0.645601 35.6991 0.47956 33.216 0.534075C29.6131 0.61313 26.0368 1.40125 22.7617 2.91316C17.2822 5.44268 13.8279 8.6373 10.854 13.6828C9.28977 16.3368 8.6223 18.3126 8.16083 21.3625C7.56186 25.3214 7.65533 30.4104 9.01333 34.1747C9.74757 36.2104 10.4668 38.1499 11.0127 39.6074C11.4733 40.8369 10.5706 42.1533 9.26338 42.1533C9.05364 42.1533 8.78409 42.1533 8.41529 42.1539H4.50434C3.4847 42.1539 2.65817 42.9844 2.65817 44.0098C2.65817 45.2062 3.6237 46.176 4.81376 46.1741L13.9545 46.1616L15.0377 46.1697C15.6517 46.1747 16.2434 46.402 16.7039 46.8104L16.8251 46.9178C17.2756 47.3168 17.381 47.9819 17.0763 48.502C16.7748 49.0172 16.2246 49.3338 15.6301 49.3338H13.5964L2.66457 49.3344C1.63195 49.3344 0.794922 50.1762 0.794922 51.2147C0.794922 52.4167 1.76654 53.3896 2.962 53.3846L30.4027 53.2772C40.8119 53.2772 43.1391 53.8692 48.6468 51.2147C53.6006 48.8268 58.2351 44.4263 60.5555 39.9077C61.4337 38.198 61.8411 37.8333 64.3888 36.4764C72.9597 31.9123 78.1886 22.7019 78.1886 12.17V11.2416C78.1886 10.0762 77.2495 9.13149 76.09 9.13149H75.1745C74.5118 9.13149 73.9665 9.65391 73.9336 10.319L73.7932 13.1951C73.4659 19.8851 71.6604 24.3627 67.6252 28.4935C66.4147 29.7328 65.1012 30.9313 64.4807 31.374C64.3434 31.4721 64.0714 31.532 63.9198 31.4571C63.4919 31.246 63.6391 30.5978 63.6702 30.1199C63.7795 28.4392 63.8938 24.3383 63.9155 19.7226V10.4555C63.9155 9.76575 63.3596 9.20662 62.6733 9.20662H61.8566C60.7138 9.14948 59.7611 10.0739 59.7772 11.2237L59.8629 17.4347C59.9605 24.4436 59.7338 28.9841 59.1288 31.9029C58.9754 32.6448 58.7388 33.3929 58.2152 33.938C57.3333 34.8572 55.8383 34.8291 54.5701 34.8897C49.1337 35.1469 34.7625 35.0202 31.4956 34.0816C29.3218 33.4572 27.7832 31.9766 26.8991 30.2284C25.9703 28.392 25.9606 25.2657 26.8784 23.4658C29.81 17.7171 37.7717 16.8902 40.8119 22.5291C42.0192 26.5553 39.5697 26.588 36.4643 26.8542C34.952 26.8791 33.7759 28.1853 33.9015 29.7009L33.9238 29.9696C33.9555 30.3524 34.2737 30.6472 34.6557 30.6472H35.2221H36.4643H38.5722C40.0324 30.6472 41.4603 30.2124 42.6751 29.398C43.6987 28.3692 44.5756 27.1499 44.8383 25.7191C44.965 25.0296 44.9986 24.3902 44.9501 23.7426C44.8427 22.288 44.2508 20.9024 43.3751 19.7395C40.1858 15.5044 34.6358 13.5726 29.6277 15.4628C27.7526 16.1705 25.6499 17.8216 24.1963 19.6306C23.3272 20.7121 22.7368 22.0034 22.4172 23.3562C22.3188 23.7727 22.2404 24.2517 22.1811 24.9121C22.0674 26.179 22.1439 27.4588 22.3474 28.7144C22.6189 30.3886 22.8716 31.1018 23.4215 32.1621C24.5695 34.3757 25.924 36.0443 28.0796 37.2039L29.375 37.7615C29.959 38.0132 30.5679 38.2017 31.1916 38.3235C32.6335 38.6051 34.1029 38.7563 35.5718 38.7731C46.9208 38.9024 51.4026 38.8693 53.4391 38.8699C54.8347 38.8705 55.5135 40.0201 54.6446 41.1179C54.0235 41.9035 53.0764 42.3581 52.0783 42.3493L36.4786 42.2113C34.2079 42.1914 31.9297 41.881 29.7516 41.2359C23.4784 39.377 19.0335 33.3991 19.0335 26.8215C19.0335 22.6556 20.5729 19.0388 23.5826 16.1332C26.6037 13.2164 29.9242 11.8312 33.8939 11.8312C38.853 11.8312 43.3651 14.287 46.2923 18.5794C47.9729 21.0428 48.4624 22.8608 48.7071 27.5439L48.8257 29.8083C48.8866 30.985 49.8219 31.9254 50.9926 31.9866C52.1118 32.0459 53.0515 31.1492 53.0515 30.0222V28.5141C53.0515 23.9039 52.6143 21.6598 51.0821 18.398C48.7568 13.4476 43.9291 9.46739 38.5306 8.04857C31.0826 6.09186 22.3998 9.44353 17.97 15.9851C15.1848 20.0983 14.0247 26.5527 15.2246 31.2616C16.031 34.4263 17.5558 37.2744 19.6134 39.6149C24.6769 45.3754 33.1078 45.6296 40.7541 45.6827C43.0198 45.6983 45.27 45.727 47.1537 45.7844C48.0257 45.8113 48.368 46.8947 47.64 47.3774C47.4606 47.4961 47.2991 47.5966 47.1494 47.684C45.3781 48.715 43.2571 49.0347 41.2106 49.0347C35.8072 49.0347 39.879 49.0347 36.8102 49.0347C33.5728 49.0347 30.7738 48.6557 27.6577 47.7733C25.138 47.0596 22.2034 46.0311 20.1917 44.347C17.6607 42.2282 15.5084 39.3788 14.2334 36.6881C11.4054 30.7183 11.3402 25.6422 12.7639 20.037C13.0425 18.9402 13.5461 17.6508 14.0958 16.6629C16.3277 12.6518 19.2472 9.15404 23.3644 7.15699C27 5.3936 30.4423 4.77765 33.4384 4.69822C37.8406 4.58151 42.5608 5.51999 46.0929 8.16391C46.2066 8.24877 46.3233 8.33832 46.4445 8.43299C51.3591 12.2763 48.5922 10.0857 50.8063 11.8344C51.5187 12.3972 52.5298 12.3774 53.218 11.7845C53.7999 11.283 53.9676 10.4475 53.6248 9.75826L53.554 9.61601C53.3702 9.24627 53.1279 8.90732 52.836 8.61583C51.7547 7.53497 51.7355 7.57493 49.2393 5.62309C46.2699 3.30126 42.272 1.76205 40.1939 1.16464Z" fill="#0C73FE"/>
</svg>
