<svg width="57" height="38" viewBox="0 0 57 38" fill="none" xmlns="http://www.w3.org/2000/svg">
<path fill-rule="evenodd" clip-rule="evenodd" d="M29.467 2.56697C29.1059 2.46231 28.7391 2.38366 28.3669 2.33084C27.7772 2.24715 26.7188 2.14484 25.2006 2.17843C22.9977 2.22714 20.811 2.71275 18.8085 3.64435C15.4581 5.20296 13.3461 7.17139 11.5278 10.2803C10.5714 11.9156 10.1632 13.133 9.88109 15.0123C9.51486 17.4516 9.57201 20.5873 10.4023 22.9067C10.8513 24.1611 11.2911 25.3561 11.6248 26.2542C11.9064 27.0118 11.3545 27.8229 10.5552 27.8229C10.427 27.8229 10.2622 27.8229 10.0367 27.8233H7.6454C7.02197 27.8233 6.5166 28.335 6.5166 28.9668C6.5166 29.704 7.10696 30.3016 7.83459 30.3004L13.4235 30.2927L14.0858 30.2977C14.4612 30.3008 14.823 30.4408 15.1046 30.6925L15.1787 30.7587C15.4542 31.0045 15.5186 31.4143 15.3323 31.7348C15.1479 32.0522 14.8115 32.2473 14.448 32.2473H13.2046L6.52051 32.2477C5.88914 32.2477 5.37736 32.7664 5.37736 33.4062C5.37736 34.1469 5.97144 34.7464 6.70237 34.7433L23.4804 34.6771C29.8449 34.6771 31.2678 35.0419 34.6354 33.4062C37.6643 31.9349 40.498 29.2234 41.9167 26.4393C42.4537 25.3858 42.7028 25.1611 44.2605 24.325C49.501 21.5127 52.6981 15.8376 52.6981 9.34813V8.77606C52.6981 8.05797 52.1239 7.47589 51.4149 7.47589H50.8552C50.45 7.47589 50.1166 7.79779 50.0965 8.20761L50.0106 9.97976C49.8105 14.102 48.7066 16.8609 46.2394 19.4062C45.4992 20.1698 44.6961 20.9082 44.3167 21.181C44.2328 21.2415 44.0664 21.2784 43.9738 21.2322C43.7121 21.1022 43.8021 20.7028 43.8211 20.4083C43.888 19.3727 43.9578 16.8459 43.9711 14.0018V8.29171C43.9711 7.8667 43.6313 7.52218 43.2116 7.52218H42.7123C42.0135 7.48697 41.431 8.05658 41.4409 8.76505L41.4933 12.5921C41.5529 16.9107 41.4143 19.7085 41.0444 21.5069C40.9506 21.964 40.8059 22.425 40.4858 22.7609C39.9466 23.3273 39.0325 23.31 38.2571 23.3473C34.9331 23.5058 26.1461 23.4277 24.1486 22.8494C22.8195 22.4646 21.8788 21.5523 21.3382 20.4752C20.7703 19.3436 20.7644 17.4173 21.3256 16.3082C23.118 12.766 27.986 12.2565 29.8449 15.7311C30.5831 18.2119 29.0854 18.232 27.1867 18.3961C26.262 18.4114 25.5429 19.2163 25.6197 20.1501L25.6333 20.3157C25.6527 20.5516 25.8473 20.7332 26.0808 20.7332H26.4272H27.1867H28.4755C29.3683 20.7332 30.2413 20.4653 30.9841 19.9635C31.61 19.3296 32.1462 18.5783 32.3068 17.6966C32.3843 17.2718 32.4048 16.8778 32.3752 16.4788C32.3095 15.5825 31.9476 14.7287 31.4121 14.0122C29.4621 11.4027 26.0687 10.2124 23.0066 11.377C21.86 11.8131 20.5744 12.8305 19.6856 13.9451C19.1542 14.6115 18.7932 15.4072 18.5978 16.2407C18.5377 16.4974 18.4897 16.7925 18.4535 17.1994C18.3839 17.98 18.4307 18.7686 18.5552 19.5422C18.7212 20.5739 18.8757 21.0133 19.2119 21.6666C19.9138 23.0306 20.742 24.0587 22.06 24.7732L22.852 25.1168C23.2091 25.2719 23.5814 25.3881 23.9628 25.4631C24.8444 25.6366 25.7429 25.7298 26.641 25.7401C33.5801 25.8198 36.3203 25.7994 37.5655 25.7998C38.4188 25.8002 38.8339 26.5085 38.3026 27.1849C37.9229 27.669 37.3438 27.9491 36.7335 27.9437L27.1954 27.8587C25.807 27.8464 24.4141 27.6551 23.0823 27.2577C19.2467 26.1122 16.529 22.4288 16.529 18.3759C16.529 15.809 17.4702 13.5805 19.3104 11.7901C21.1576 9.99288 23.1879 9.13936 25.6151 9.13936C28.6472 9.13936 31.406 10.6526 33.1958 13.2974C34.2234 14.8153 34.5226 15.9354 34.6722 18.821L34.7448 20.2163C34.782 20.9413 35.3539 21.5208 36.0697 21.5585C36.754 21.5951 37.3286 21.0425 37.3286 20.3481V19.4189C37.3286 16.5782 37.0612 15.1954 36.1244 13.1856C34.7026 10.1353 31.7508 7.68286 28.4501 6.80863C23.8961 5.60297 18.5872 7.66816 15.8787 11.6989C14.1758 14.2333 13.4664 18.2103 14.2001 21.1118C14.6931 23.0618 15.6255 24.8167 16.8835 26.2588C19.9795 29.8083 25.1344 29.9649 29.8096 29.9976C31.1949 30.0072 32.5707 30.0249 33.7225 30.0603C34.2557 30.0768 34.4649 30.7444 34.0198 31.0418C33.9101 31.1149 33.8114 31.1769 33.7198 31.2308C32.6368 31.866 31.34 32.063 30.0887 32.063C26.7849 32.063 29.2745 32.063 27.3982 32.063C25.4187 32.063 23.7073 31.8295 21.802 31.2858C20.2614 30.846 18.4671 30.2123 17.2371 29.1746C15.6896 27.8691 14.3736 26.1134 13.594 24.4554C11.8649 20.777 11.825 17.6493 12.6955 14.1955C12.8659 13.5197 13.1738 12.7252 13.5099 12.1165C14.8745 9.64498 16.6596 7.48978 19.177 6.25926C21.3999 5.17272 23.5046 4.79319 25.3365 4.74424C28.0282 4.67233 30.9143 5.2506 33.0739 6.8797C33.1434 6.93199 33.2148 6.98716 33.2888 7.04549C36.2938 9.41362 34.602 8.06385 35.9558 9.14135C36.3914 9.48811 37.0096 9.47591 37.4304 9.11061C37.7862 8.80157 37.8887 8.28679 37.6791 7.86208L37.6358 7.77443C37.5234 7.54661 37.3753 7.33776 37.1968 7.15815C36.5357 6.49216 36.5239 6.51679 34.9977 5.31412C33.1821 3.88348 30.7377 2.93507 29.467 2.56697Z" fill="white"/>
</svg>
