<svg width="20" height="23" viewBox="0 0 20 23" fill="none" xmlns="http://www.w3.org/2000/svg">
<path d="M8.13301 0.332036C7.61801 0.332036 7.20002 0.714035 7.20002 1.18504C7.20002 5.49604 0.666016 8.85804 0.666016 14.826C0.666016 19.36 6.04602 22.291 7.94002 22.481C8.00302 22.493 8.06801 22.499 8.13301 22.499C8.64901 22.499 9.06701 22.117 9.06701 21.647C9.06701 21.39 8.94002 21.147 8.72202 20.985C7.87202 20.355 6.26602 18.529 6.26602 16.862C6.26602 14.127 9.06602 13.121 9.06602 13.121C7.47002 17.247 12.702 17.746 13.755 21.831H13.757C13.852 22.221 14.23 22.498 14.667 22.499C14.8819 22.4992 15.091 22.4297 15.263 22.301C15.414 22.211 19.333 19.843 19.333 14.826C19.333 12.778 18.212 9.25904 17.405 7.70104L17.403 7.69604L17.401 7.69204C17.261 7.36704 16.916 7.15304 16.533 7.15204C16.083 7.15304 15.698 7.44703 15.616 7.85103V7.85403C15.614 7.86404 15.186 9.60204 13.733 10.564C13.733 6.54604 10.558 2.39704 8.88402 0.680035C8.79189 0.570649 8.6769 0.482797 8.54715 0.42267C8.41739 0.362543 8.27602 0.331605 8.13301 0.332036Z" fill="#F57C00"/>
</svg>
